<svg width="21" height="20" viewBox="0 0 21 20" fill="none" xmlns="http://www.w3.org/2000/svg">
<g clip-path="url(#clip0_60_33492)">
<g clip-path="url(#clip1_60_33492)">
<path opacity="0.4" d="M16.7984 10.7943H18.4817V9.59428C18.4817 7.86928 17.0734 6.46094 15.3484 6.46094H5.78177C4.05677 6.46094 2.64844 7.86928 2.64844 9.59428V12.6359C3.30678 12.0359 4.19011 11.6693 5.14844 11.6693C7.22344 11.6693 8.89844 13.3526 8.89844 15.4193C8.89844 15.8609 8.82345 16.2776 8.68178 16.6693C8.45678 17.3276 8.04011 17.8943 7.51511 18.3359H15.3484C17.0734 18.3359 18.4817 16.9276 18.4817 15.2026V14.2109H16.8984C15.9984 14.2109 15.1734 13.5526 15.0984 12.6526C15.0484 12.1276 15.2484 11.6359 15.5984 11.2943C15.9067 10.9776 16.3317 10.7943 16.7984 10.7943Z" fill="#797979"/>
<path d="M5.14844 11.6641C4.19011 11.6641 3.30678 12.0307 2.64844 12.6307C2.49844 12.764 2.35678 12.9057 2.23178 13.0641C1.70678 13.7057 1.39844 14.5224 1.39844 15.4141C1.39844 17.4891 3.08178 19.1641 5.14844 19.1641C6.04844 19.1641 6.86511 18.8474 7.51511 18.3307C8.04011 17.8891 8.45678 17.3224 8.68178 16.6641C8.82345 16.2724 8.89844 15.8557 8.89844 15.4141C8.89844 13.3474 7.22344 11.6641 5.14844 11.6641ZM7.39844 14.6891C7.39844 14.9474 7.1901 15.1474 6.9401 15.1474C6.6901 15.1474 6.48178 14.9474 6.48178 14.6891V14.5974C6.48178 14.4974 6.40678 14.4141 6.30678 14.4141H4.42345C4.51511 14.5891 4.49844 14.8057 4.34844 14.9557C4.2651 15.0391 4.14844 15.0891 4.02344 15.0891C3.90677 15.0891 3.79011 15.0391 3.70678 14.9557L3.03178 14.2807C2.99011 14.2391 2.95677 14.1891 2.93177 14.1307C2.89011 14.0224 2.89011 13.8974 2.93177 13.7807C2.95677 13.7307 2.99011 13.6724 3.03178 13.6307L3.70678 12.9641C3.88178 12.7807 4.17344 12.7807 4.34844 12.9641C4.49844 13.1057 4.51511 13.3307 4.42345 13.4974H6.30678C6.90678 13.4974 7.39844 13.9891 7.39844 14.5974V14.6891ZM6.27345 17.9974C6.14845 17.9974 6.03178 17.9557 5.94845 17.8641C5.79845 17.7224 5.78177 17.4974 5.87344 17.3307H3.99011C3.39011 17.3307 2.89844 16.839 2.89844 16.2307V16.1391C2.89844 15.8807 3.10678 15.6807 3.35678 15.6807C3.60678 15.6807 3.8151 15.8807 3.8151 16.1391V16.2307C3.8151 16.3307 3.89011 16.4141 3.99011 16.4141H5.87344C5.78177 16.2391 5.79845 16.0224 5.94845 15.8724C6.12345 15.6974 6.41511 15.6974 6.59011 15.8724L7.2651 16.5474C7.30677 16.5891 7.34011 16.639 7.36511 16.6974C7.40678 16.8057 7.40678 16.9307 7.36511 17.0474C7.34011 17.0974 7.30677 17.1557 7.2651 17.1974L6.59011 17.8641C6.50677 17.9557 6.39011 17.9974 6.27345 17.9974Z" fill="#797979"/>
<path d="M12.9401 3.29494V6.4616H5.78177C4.05677 6.4616 2.64844 7.86994 2.64844 9.59494V6.53662C2.64844 5.54496 3.25677 4.66159 4.18177 4.31159L10.7984 1.81159C11.8317 1.42825 12.9401 2.18661 12.9401 3.29494Z" fill="#797979"/>
<path d="M19.3681 11.639V13.3557C19.3681 13.8141 19.0014 14.189 18.5347 14.2057H16.9014C16.0014 14.2057 15.1764 13.5474 15.1014 12.6474C15.0514 12.1224 15.2514 11.6307 15.6014 11.289C15.9097 10.9724 16.3347 10.7891 16.8014 10.7891H18.5347C19.0014 10.8057 19.3681 11.1807 19.3681 11.639Z" fill="#797979"/>
<path d="M12.2317 10.625H6.39844C6.05677 10.625 5.77344 10.3417 5.77344 10C5.77344 9.65833 6.05677 9.375 6.39844 9.375H12.2317C12.5734 9.375 12.8567 9.65833 12.8567 10C12.8567 10.3417 12.5734 10.625 12.2317 10.625Z" fill="#797979"/>
</g>
</g>
<defs>
<clipPath id="clip0_60_33492">
<rect width="21" height="20" fill="white"/>
</clipPath>
<clipPath id="clip1_60_33492">
<rect width="21" height="20" fill="white"/>
</clipPath>
</defs>
</svg>
