<svg width="24" height="24" viewBox="0 0 24 24" fill="none" xmlns="http://www.w3.org/2000/svg">
<path d="M19.9736 10.2949C20.0002 10.9912 20 11.8017 20 12.751V13.1318C20 16.3694 19.9997 17.9883 18.9453 18.9941C17.8909 19.9999 16.1939 20 12.7998 20H11.2002C7.80608 20 6.1091 19.9999 5.05469 18.9941C4.00027 17.9883 4 16.3694 4 13.1318V12.751C4 11.8017 3.99978 10.9912 4.02637 10.2949H19.9736Z" fill="#3A643C" fill-opacity="0.4"/>
<path d="M17.3385 5V6.76467V5ZM6.67188 5V6.76467V5Z" fill="#3A643C" fill-opacity="0.4"/>
<path d="M17.3385 5V6.76467M6.67188 5V6.76467" stroke="#3A643C" stroke-width="0.7" stroke-linecap="round" stroke-linejoin="round"/>
<path d="M4 12.7507C4 9.51316 4 7.89437 5.05442 6.88859C6.10883 5.88281 7.80589 5.88281 11.2 5.88281H12.8C16.1941 5.88281 17.8912 5.88281 18.9456 6.88859C20 7.89437 20 9.51316 20 12.7507V13.1323C20 16.3699 20 17.9886 18.9456 18.9944C17.8912 20.0002 16.1941 20.0002 12.8 20.0002H11.2C7.80589 20.0002 6.10883 20.0002 5.05442 18.9944C4 17.9886 4 16.3699 4 13.1323V12.7507Z" stroke="#3A643C" stroke-width="0.7" stroke-linecap="round" stroke-linejoin="round"/>
<path d="M4.44531 10.2949L19.5564 10.2949" stroke="#3A643C" stroke-width="0.7" stroke-linecap="round" stroke-linejoin="round"/>
<path d="M9.00254 13.2559C8.48135 14.6074 7.10851 16.7568 10.8267 18.3919C13.3311 19.1082 14.7357 18.1215 14.9963 14.6074" stroke="#3A643B" stroke-width="0.644976" stroke-linecap="round"/>
<path d="M9.26367 11.1465C9.79415 11.1465 10.2441 11.5962 10.2441 12.1758C10.2441 12.7554 9.79416 13.2051 9.26367 13.2051C8.7333 13.2049 8.2832 12.7553 8.2832 12.1758C8.28321 11.5963 8.7333 11.1466 9.26367 11.1465Z" fill="#3A643C" fill-opacity="0.4" stroke="#3A643B" stroke-width="0.644976"/>
<mask id="path-8-inside-1_112_8211" fill="white">
<path d="M13.9132 13.089C13.8403 13.0836 13.7766 13.1384 13.7776 13.2115C13.7796 13.3569 13.8013 13.5013 13.8422 13.6396C13.8954 13.8198 13.9802 13.9862 14.0917 14.1293C14.2031 14.2725 14.3391 14.3895 14.4918 14.4738C14.6445 14.5581 14.8109 14.608 14.9816 14.6206C15.1522 14.6333 15.3238 14.6084 15.4865 14.5474C15.6492 14.4865 15.7998 14.3906 15.9297 14.2653C16.0596 14.1401 16.1663 13.9878 16.2437 13.8173C16.3031 13.6864 16.3443 13.5467 16.3662 13.403C16.3771 13.3308 16.3216 13.2672 16.2487 13.2618C16.1759 13.2564 16.1134 13.3114 16.101 13.3833C16.0827 13.4885 16.0513 13.5907 16.0076 13.687C15.946 13.8229 15.8609 13.9442 15.7574 14.0441C15.6539 14.1439 15.5338 14.2203 15.4042 14.2689C15.2745 14.3175 15.1378 14.3373 15.0017 14.3273C14.8657 14.3172 14.7331 14.2774 14.6114 14.2102C14.4897 14.1431 14.3813 14.0498 14.2925 13.9357C14.2037 13.8216 14.1361 13.689 14.0937 13.5454C14.0636 13.4437 14.0465 13.3378 14.0429 13.231C14.0403 13.158 13.9861 13.0944 13.9132 13.089Z"/>
</mask>
<path d="M13.9132 13.089C13.8403 13.0836 13.7766 13.1384 13.7776 13.2115C13.7796 13.3569 13.8013 13.5013 13.8422 13.6396C13.8954 13.8198 13.9802 13.9862 14.0917 14.1293C14.2031 14.2725 14.3391 14.3895 14.4918 14.4738C14.6445 14.5581 14.8109 14.608 14.9816 14.6206C15.1522 14.6333 15.3238 14.6084 15.4865 14.5474C15.6492 14.4865 15.7998 14.3906 15.9297 14.2653C16.0596 14.1401 16.1663 13.9878 16.2437 13.8173C16.3031 13.6864 16.3443 13.5467 16.3662 13.403C16.3771 13.3308 16.3216 13.2672 16.2487 13.2618C16.1759 13.2564 16.1134 13.3114 16.101 13.3833C16.0827 13.4885 16.0513 13.5907 16.0076 13.687C15.946 13.8229 15.8609 13.9442 15.7574 14.0441C15.6539 14.1439 15.5338 14.2203 15.4042 14.2689C15.2745 14.3175 15.1378 14.3373 15.0017 14.3273C14.8657 14.3172 14.7331 14.2774 14.6114 14.2102C14.4897 14.1431 14.3813 14.0498 14.2925 13.9357C14.2037 13.8216 14.1361 13.689 14.0937 13.5454C14.0636 13.4437 14.0465 13.3378 14.0429 13.231C14.0403 13.158 13.9861 13.0944 13.9132 13.089Z" fill="#3A643B" stroke="#3A643B" stroke-width="2" mask="url(#path-8-inside-1_112_8211)"/>
<path d="M10.5625 15.6895L11.3443 16.5004L13.1685 14.3379" stroke="#3A643B" stroke-width="0.644976" stroke-linecap="round"/>
<path d="M13.9547 11.9043C13.6941 12.0845 13.3293 12.6071 13.9547 13.2559C14.3022 13.0757 14.7886 12.5531 13.9547 11.9043Z" fill="#3A643C" fill-opacity="0.4" stroke="#3A643B" stroke-width="0.386986" stroke-linecap="round"/>
<path d="M16.1188 12.1758C15.8582 12.356 15.4933 12.848 16.1188 13.4967C16.4662 13.3165 16.8158 12.6858 16.1188 12.1758Z" fill="#3A643C" fill-opacity="0.4" stroke="#3A643B" stroke-width="0.386986" stroke-linecap="round"/>
</svg>
