<svg width="24" height="24" viewBox="0 0 24 24" fill="none" xmlns="http://www.w3.org/2000/svg">
<path d="M20 11.6534C20 15.8799 16.4178 19.3067 12 19.3067C11.4806 19.3074 10.9626 19.2594 10.4523 19.1636C10.0851 19.0946 9.90142 19.0601 9.77322 19.0797C9.64502 19.0993 9.46335 19.1959 9.09999 19.3891C8.07211 19.9358 6.87356 20.1288 5.72089 19.9144C6.15899 19.3755 6.4582 18.729 6.59022 18.0358C6.67022 17.6118 6.472 17.2 6.17511 16.8985C4.82666 15.5292 4 13.6841 4 11.6534C4 7.42686 7.58222 4 12 4C16.4178 4 20 7.42686 20 11.6534Z" fill="#3A643C" fill-opacity="0.4"/>
<path d="M20 11.6534C20 15.8799 16.4178 19.3067 12 19.3067C11.4806 19.3074 10.9626 19.2594 10.4523 19.1636C10.0851 19.0946 9.90142 19.0601 9.77322 19.0797C9.64502 19.0993 9.46334 19.1958 9.09999 19.3891C8.07211 19.9358 6.87356 20.1288 5.72089 19.9144C6.15899 19.3755 6.4582 18.729 6.59022 18.0358C6.67022 17.6118 6.472 17.2 6.17511 16.8985C4.82666 15.5292 4 13.6841 4 11.6534C4 7.42686 7.58222 4 12 4C16.4178 4 20 7.42686 20 11.6534Z" stroke="#3A643B" stroke-width="0.7" stroke-linejoin="round"/>
<path d="M8.807 13.4346C9.67789 12.7397 10.4888 12.3449 11.2863 12.2278C12.2915 12.0801 13.2899 12.4291 13.8299 13.117C14.0558 13.4048 14.1658 13.847 14.0915 14.1684C14.0123 14.5108 13.7427 14.794 13.4046 14.8899C13.0665 14.9859 12.6884 14.8865 12.4412 14.6367C12.27 14.4637 12.1743 14.227 12.1851 14.0036C12.1973 13.755 12.341 13.5279 12.5509 13.4251C12.7759 13.315 13.0644 13.3673 13.2221 13.5467C13.391 13.7388 13.3807 14.0545 13.2003 14.2224" stroke="#3A643B" stroke-width="0.6" stroke-linecap="round"/>
<path d="M11.1877 11.2784C12.2689 11.532 13.2994 11.2277 13.813 10.5031C14.0279 10.2 14.1062 9.71348 13.9991 9.34632C13.8849 8.95527 13.5737 8.61394 13.206 8.47671C12.8383 8.33945 12.4451 8.41792 12.2043 8.67659C12.0374 8.85569 11.9564 9.11289 11.9876 9.36456" stroke="#3A643B" stroke-width="0.6" stroke-linecap="round"/>
</svg>
