<svg width="20" height="20" viewBox="0 0 20 20" fill="none" xmlns="http://www.w3.org/2000/svg">
<g clip-path="url(#clip0_60_33468)">
<g clip-path="url(#clip1_60_33468)">
<path opacity="0.4" d="M10.0013 4.41674V17.7751C9.85963 17.7751 9.70964 17.7501 9.59297 17.6834L9.55963 17.6667C7.95964 16.7917 5.16797 15.8751 3.35963 15.6334L3.11797 15.6001C2.31797 15.5001 1.66797 14.7501 1.66797 13.9501V3.88341C1.66797 2.89174 2.4763 2.14174 3.46797 2.22508C5.21797 2.36674 7.86797 3.25008 9.3513 4.17508L9.55963 4.30008C9.68463 4.37508 9.84297 4.41674 10.0013 4.41674Z" fill="#797979"/>
<path d="M18.3333 3.89128V13.9496C18.3333 14.7496 17.6833 15.4996 16.8833 15.5996L16.6083 15.633C14.7917 15.8746 11.9917 16.7996 10.3917 17.683C10.2833 17.7496 10.15 17.7746 10 17.7746V4.41628C10.1583 4.41628 10.3167 4.37462 10.4417 4.29962L10.5833 4.20795C12.0667 3.27462 14.725 2.38295 16.475 2.23295H16.525C17.5167 2.14962 18.3333 2.89128 18.3333 3.89128Z" fill="#797979"/>
<path d="M6.45703 7.70312H4.58203C4.24037 7.70312 3.95703 7.4198 3.95703 7.07812C3.95703 6.73647 4.24037 6.45312 4.58203 6.45312H6.45703C6.7987 6.45312 7.08203 6.73647 7.08203 7.07812C7.08203 7.4198 6.7987 7.70312 6.45703 7.70312Z" fill="#797979"/>
<path d="M7.08203 10.2031H4.58203C4.24037 10.2031 3.95703 9.9198 3.95703 9.57812C3.95703 9.23647 4.24037 8.95312 4.58203 8.95312H7.08203C7.4237 8.95312 7.70703 9.23647 7.70703 9.57812C7.70703 9.9198 7.4237 10.2031 7.08203 10.2031Z" fill="#797979"/>
</g>
</g>
<defs>
<clipPath id="clip0_60_33468">
<rect width="20" height="20" fill="white"/>
</clipPath>
<clipPath id="clip1_60_33468">
<rect width="20" height="20" fill="white"/>
</clipPath>
</defs>
</svg>
