<svg width="24" height="24" viewBox="0 0 24 24" fill="none" xmlns="http://www.w3.org/2000/svg">
<path d="M4 9.6827V7C4 6.44772 4.44772 6 5 6H19C19.5523 6 20 6.44772 20 7V17C20 17.5523 19.5523 18 19 18H5C4.44772 18 4 17.5523 4 17V16.875V14.183C4 13.7711 4.27173 13.4239 4.5962 13.1702C5.43942 12.5109 5.2094 11.4986 4.68396 10.9233C4.36328 10.5721 4 10.1583 4 9.6827Z" fill="#3A643C" fill-opacity="0.4" stroke="#3A643B" stroke-width="0.7" stroke-linecap="round"/>
<path d="M8 6V18" stroke="#3A643B" stroke-width="0.7" stroke-linecap="round" stroke-dasharray="2.23 2.23"/>
<path d="M14.8014 14.6405C14.8014 11.8633 16.0615 11.5547 17.3216 11.5547C17.3216 13.4061 16.3765 14.6405 14.8014 14.6405ZM14.8014 14.6405C14.8014 11.8633 13.5413 11.5547 12.2812 11.5547C12.2812 13.4061 13.2263 14.6405 14.8014 14.6405Z" fill="#F5F7F5"/>
<path d="M14.8014 14.6405C14.8014 11.8633 16.0615 11.5547 17.3216 11.5547C17.3216 13.4061 16.3765 14.6405 14.8014 14.6405ZM14.8014 14.6405C14.8014 11.8633 13.5413 11.5547 12.2812 11.5547C12.2812 13.4061 13.2263 14.6405 14.8014 14.6405Z" stroke="#3A643C" stroke-width="0.7" stroke-linecap="round" stroke-linejoin="round"/>
<path d="M13.5391 11.5546C13.5391 11.5546 13.8541 10.6289 14.7992 10.3203C15.7442 10.6289 16.0592 11.5546 16.0592 11.5546" fill="#F5F7F5"/>
<path d="M13.5391 11.5546C13.5391 11.5546 13.8541 10.6289 14.7992 10.3203C15.7442 10.6289 16.0592 11.5546 16.0592 11.5546" stroke="#3A643C" stroke-width="0.7" stroke-linecap="round" stroke-linejoin="round"/>
</svg>
