<svg width="24" height="24" viewBox="0 0 24 24" fill="none" xmlns="http://www.w3.org/2000/svg">
<path d="M7.54167 11.0833C9.49767 11.0833 11.0833 9.49767 11.0833 7.54167C11.0833 5.58566 9.49767 4 7.54167 4C5.58566 4 4 5.58566 4 7.54167C4 9.49767 5.58566 11.0833 7.54167 11.0833Z" fill="#3A643C" fill-opacity="0.4"/>
<path d="M7.5 11C9.433 11 11 9.433 11 7.5C11 5.567 9.433 4 7.5 4C5.567 4 4 5.567 4 7.5C4 9.433 5.567 11 7.5 11Z" stroke="#3A643B" stroke-width="0.7"/>
<path d="M16.5 20C18.433 20 20 18.433 20 16.5C20 14.567 18.433 13 16.5 13C14.567 13 13 14.567 13 16.5C13 18.433 14.567 20 16.5 20Z" fill="#3A643C" fill-opacity="0.4"/>
<path d="M16.5 20C18.433 20 20 18.433 20 16.5C20 14.567 18.433 13 16.5 13C14.567 13 13 14.567 13 16.5C13 18.433 14.567 20 16.5 20Z" stroke="#3A643B" stroke-width="0.7"/>
<path d="M7.5 20C9.433 20 11 18.433 11 16.5C11 14.567 9.433 13 7.5 13C5.567 13 4 14.567 4 16.5C4 18.433 5.567 20 7.5 20Z" stroke="#3A643B" stroke-width="0.7"/>
<path d="M17.8322 9.98916C17.4508 10.5572 16.8006 10.9314 16.0625 10.9314C15.3244 10.9314 14.6743 10.5572 14.2928 9.98916C14.0673 9.65317 13.9357 9.24935 13.9357 8.81496C13.9357 8.38062 14.0672 7.97684 14.2928 7.64089M17.8322 9.98916L19.7757 12M17.8322 9.98916C18.0577 9.65317 18.1893 9.24935 18.1893 8.81496M16.0625 6.69856V4.44444M16.0625 6.69856C16.4231 6.69856 16.7628 6.78788 17.0604 6.94549M16.0625 6.69856C15.7506 6.69856 15.4544 6.76537 15.1875 6.88541M17.8323 7.64089L20 6.88541M17.8323 7.64089C18.0578 7.97684 18.1893 8.38062 18.1893 8.81496M17.8323 7.64089C17.6372 7.35032 17.3719 7.11048 17.0604 6.94549M14.2928 7.64089L13 6.66667M14.2928 7.64089C14.513 7.31282 14.8228 7.04943 15.1875 6.88541M18.1893 8.81496L19.7757 8.88889M17.0604 6.94549L18.6875 4.44444M15.1875 6.88541L13.4375 4" stroke="#3A643B" stroke-width="0.7" stroke-linecap="round"/>
</svg>
