<svg width="24" height="24" viewBox="0 0 24 24" fill="none" xmlns="http://www.w3.org/2000/svg">
<path d="M7.26447 15.0762C5.61915 15.0762 4.71094 16.6945 4.71094 18.4809H10.6692C10.6692 16.6945 8.90979 15.0762 7.26447 15.0762Z" fill="#3A643C" fill-opacity="0.4"/>
<path d="M12.0156 18.481H18.2373C18.2373 16.0406 18.3614 13.3011 17.7188 11.741C17.2153 10.5187 16.1104 10.1855 14.9783 10.1855C13.8185 10.1855 12.9708 10.4657 12.5341 11.741C12.0005 13.2992 12.0156 16.0875 12.0156 18.481Z" fill="#3A643C" fill-opacity="0.4"/>
<path d="M4 18.4798H11.2586C11.2586 17.2596 11.0772 16.149 10.2216 15.369C9.55136 14.7578 8.9327 14.332 7.42562 14.332C5.88159 14.332 5.61827 14.7314 5.03694 15.369C4.32657 16.1481 4 17.283 4 18.4798Z" fill="#3A643C" fill-opacity="0.4"/>
<circle cx="15.1364" cy="7.07388" r="1.72388" fill="#3A643C" fill-opacity="0.4" stroke="#3A643B" stroke-width="0.7"/>
<path d="M18.2451 13.0487C18.2451 11.4664 16.8523 10.1836 15.1343 10.1836C13.4162 10.1836 12.0234 11.4664 12.0234 13.0487" stroke="#3A643B" stroke-width="0.7"/>
<path d="M11.6734 18.2672C11.6734 18.4605 11.8301 18.6172 12.0234 18.6172C12.2167 18.6172 12.3734 18.4605 12.3734 18.2672H11.6734ZM12.0234 12.6406H11.6734V18.2672H12.0234H12.3734V12.6406H12.0234Z" fill="#3A643B"/>
<path d="M17.8922 18.4057C17.8922 18.599 18.0489 18.7557 18.2422 18.7557C18.4355 18.7557 18.5922 18.599 18.5922 18.4057H17.8922ZM18.2422 12.6406H17.8922V18.4057H18.2422H18.5922V12.6406H18.2422Z" fill="#3A643B"/>
<path d="M20.3523 5.0194C20.363 4.82639 20.2153 4.66125 20.0223 4.65054C19.8293 4.63983 19.6641 4.7876 19.6534 4.9806L20.3523 5.0194ZM17.2031 11.2216L17.4397 11.4796C19.2044 9.86114 20.1939 7.87277 20.3523 5.0194L20.0029 5L19.6534 4.9806C19.5046 7.66106 18.5898 9.475 16.9666 10.9637L17.2031 11.2216Z" fill="#3A643B"/>
<path d="M12.82 10.9645L13.0809 11.1978L13.5475 10.6759L13.2866 10.4427L12.82 10.9645ZM10.8004 6.21179C10.7534 6.02429 10.5634 5.91038 10.3759 5.95737C10.1884 6.00436 10.0744 6.19446 10.1214 6.38196L10.8004 6.21179ZM13.0533 10.7036L13.2866 10.4427C12.7312 9.94616 12.2648 9.48395 11.8601 8.85514C11.4554 8.22639 11.1017 7.41406 10.8004 6.21179L10.4609 6.29688L10.1214 6.38196C10.4363 7.63825 10.8156 8.52578 11.2714 9.234C11.7273 9.94217 12.249 10.454 12.82 10.9645L13.0533 10.7036Z" fill="#3A643B"/>
<path d="M11.2572 18.1687C11.2572 15.878 9.63229 14.332 7.62789 14.332C5.62349 14.332 4.04688 16.1891 4.04688 18.4798" stroke="#3A643B" stroke-width="0.7" stroke-linecap="round"/>
<circle cx="7.89277" cy="11.4807" r="1.46464" fill="#3A643C" fill-opacity="0.4" stroke="#3A643B" stroke-width="0.7"/>
<path d="M5.55541 14.851C4.3279 13.9187 4.2555 13.2481 4 11.7402" stroke="#3A643B" stroke-width="0.7" stroke-linecap="round"/>
<path d="M4 18.4805L18.229 18.4805" stroke="#3A643B" stroke-width="0.7" stroke-linecap="round"/>
</svg>
