<svg width="24" height="24" viewBox="0 0 24 24" fill="none" xmlns="http://www.w3.org/2000/svg">
<path d="M8.53369 10.739C8.2059 7.48693 11.0727 7.35359 12.5538 9.4695C12.7352 9.72868 12.8997 10.0346 13.0525 10.3757C13.3407 11.019 13.5876 11.7877 13.8292 12.605C13.9336 12.9584 14.0371 13.3209 14.1425 13.6863C14.7194 15.6865 15.3538 17.7734 16.5229 18.9299C13.1549 18.4097 8.86149 13.9911 8.53369 10.739Z" fill="#3A643C" fill-opacity="0.4"/>
<path d="M12.9382 10.1318C12.8182 9.88769 12.6908 9.66527 12.5538 9.4695C11.0727 7.35359 8.2059 7.48693 8.53369 10.739C8.86149 13.9911 13.1549 18.4097 16.5229 18.9299C15.4241 17.843 14.7976 15.9341 14.2473 14.0478" stroke="#3A643B" stroke-width="0.7" stroke-linecap="round"/>
<path d="M9.45299 14.1607C11.224 15.0068 12.9934 18.7454 16.5231 19.3445C11.2281 21.666 6.76026 18.2239 6.61355 16.189C6.46683 14.154 7.68196 13.3147 9.45299 14.1607Z" fill="#3A643C" fill-opacity="0.4" stroke="#3A643B" stroke-width="0.7" stroke-linecap="round"/>
<circle cx="14.6646" cy="6.38338" r="2.03338" fill="#3A643C" fill-opacity="0.4" stroke="#3A643B" stroke-width="0.7"/>
<path d="M14.4055 10.166V13.1176M15.8812 11.6418H12.9297" stroke="#F5F7F5" stroke-width="1.6" stroke-linecap="round" stroke-linejoin="round"/>
<path d="M14.4055 10.166V13.1176M15.8812 11.6418H12.9297" stroke="#3A643B" stroke-width="0.8" stroke-linecap="round" stroke-linejoin="round"/>
</svg>
