<svg width="24" height="24" viewBox="0 0 24 24" fill="none" xmlns="http://www.w3.org/2000/svg">
<path d="M4 11.7509C4 8.51326 4 6.89443 5.05442 5.88862C6.10883 4.88281 7.80589 4.88281 11.2 4.88281H12.8C16.1941 4.88281 17.8912 4.88281 18.9456 5.88862C20 6.89443 20 8.51326 20 11.7509V12.1325C20 15.3701 20 16.9889 18.9456 17.9948C17.8912 19.0006 16.1941 19.0006 12.8 19.0006H11.2C7.80589 19.0006 6.10883 19.0006 5.05442 17.9948C4 16.9889 4 15.3701 4 12.1325V11.7509Z" fill="#3A643C" fill-opacity="0.4"/>
<path d="M17.3307 4V5.76472M6.66406 4V5.76472" stroke="#3A643C" stroke-width="0.7" stroke-linecap="round" stroke-linejoin="round"/>
<path d="M4 11.7509C4 8.51326 4 6.89443 5.05442 5.88862C6.10883 4.88281 7.80589 4.88281 11.2 4.88281H12.8C16.1941 4.88281 17.8912 4.88281 18.9456 5.88862C20 6.89443 20 8.51326 20 11.7509V12.1325C20 15.3701 20 16.9889 18.9456 17.9948C17.8912 19.0006 16.1941 19.0006 12.8 19.0006H11.2C7.80589 19.0006 6.10883 19.0006 5.05442 17.9948C4 16.9889 4 15.3701 4 12.1325V11.7509Z" stroke="#3A643C" stroke-width="0.7" stroke-linecap="round" stroke-linejoin="round"/>
<path d="M6.66406 8.41211H17.3307" stroke="#3A643C" stroke-width="0.7" stroke-linecap="round" stroke-linejoin="round"/>
<path d="M11.1094 13.7061L12.4427 15.4708L13.776 13.7061L13.3316 12.8238L12.4427 11.9414L11.1094 12.8238V13.7061Z" fill="#F5F7F5"/>
<path d="M12.3333 16.8346C12.3333 13.0846 14 12.668 15.6667 12.668C15.6667 15.168 14.4167 16.8346 12.3333 16.8346ZM12.3333 16.8346C12.3333 13.0846 10.6667 12.668 9 12.668C9 15.168 10.25 16.8346 12.3333 16.8346Z" fill="#F5F7F5"/>
<path d="M12.3333 16.8346C12.3333 13.0846 14 12.668 15.6667 12.668C15.6667 15.168 14.4167 16.8346 12.3333 16.8346ZM12.3333 16.8346C12.3333 13.0846 10.6667 12.668 9 12.668C9 15.168 10.25 16.8346 12.3333 16.8346Z" stroke="#3A643C" stroke-width="0.7" stroke-linecap="round" stroke-linejoin="round"/>
<path d="M10.6641 12.6667C10.6641 12.6667 11.0807 11.4167 12.3307 11C13.5807 11.4167 13.9974 12.6667 13.9974 12.6667" fill="#F5F7F5"/>
<path d="M10.6641 12.6667C10.6641 12.6667 11.0807 11.4167 12.3307 11C13.5807 11.4167 13.9974 12.6667 13.9974 12.6667" stroke="#3A643C" stroke-width="0.7" stroke-linecap="round" stroke-linejoin="round"/>
</svg>
