<svg width="24" height="24" viewBox="0 0 24 24" fill="none" xmlns="http://www.w3.org/2000/svg">
<path d="M4 9.37891H12.5011C14.5048 9.37891 15.5066 9.37891 16.1291 10.0366C16.7516 10.6943 16.7516 11.7528 16.7516 13.8699V14.6184C16.7516 16.7354 16.7516 17.794 16.1291 18.4517C15.5066 19.1094 14.5048 19.1094 12.5011 19.1094H8.25053C6.24681 19.1094 5.24495 19.1094 4.62248 18.4517C4 17.794 4 16.7354 4 14.6184V9.37891Z" fill="#3A643C" fill-opacity="0.4"/>
<path d="M16.7516 14.6184C16.7516 16.7354 16.7516 17.794 16.1291 18.4517C15.5066 19.1094 14.5048 19.1094 12.5011 19.1094H8.25053C6.24681 19.1094 5.24495 19.1094 4.62248 18.4517C4 17.794 4 16.7354 4 14.6184V9.37891H12.5011C14.5048 9.37891 15.5066 9.37891 16.1291 10.0366C16.4141 10.3377 16.5686 10.7227 16.6523 11.2549" stroke="#3A643B" stroke-width="0.7" stroke-linecap="round" stroke-linejoin="round"/>
<path d="M12.5011 9.37841V6.09398C12.5011 5.42831 11.9903 4.88867 11.3603 4.88867C11.1789 4.88867 11.0001 4.93439 10.8387 5.02204L4.54003 8.44349C4.20845 8.62361 4 8.98447 4 9.37841" stroke="#3A643B" stroke-width="0.7" stroke-linecap="round" stroke-linejoin="round"/>
<path d="M16.2872 14.0474C16.2772 15.4808 16.7962 15.756 16.7962 15.756C16.7962 15.756 17.4857 14.9879 17.4868 13.9058C17.4878 12.8236 16.9885 11.9877 16.9885 11.9877C16.9951 11.8455 16.2973 12.6139 16.2872 14.0474Z" fill="#3A643C" fill-opacity="0.4" stroke="#3A643B" stroke-width="0.7"/>
<path d="M14.8378 17.1786C15.815 18.1735 16.4109 17.9207 16.4109 17.9207C16.4109 17.9207 16.4232 16.8047 15.6804 16.0592C14.9375 15.3136 13.9718 15.1639 13.9718 15.1639C13.8792 15.0604 13.8605 16.1837 14.8378 17.1786Z" stroke="#3A643B" stroke-width="0.7"/>
<path d="M17.6161 16.5596C16.4438 17.282 16.5074 17.9469 16.5074 17.9469C16.5074 17.9469 17.5147 18.2509 18.3961 17.699C19.2775 17.1472 19.6811 16.2156 19.6811 16.2156C19.8005 16.1496 18.7883 15.8373 17.6161 16.5596Z" fill="#3A643C" fill-opacity="0.4" stroke="#3A643B" stroke-width="0.7"/>
</svg>
