<svg width="18" height="15" viewBox="0 0 18 15" fill="none" xmlns="http://www.w3.org/2000/svg">
<g clip-path="url(#clip0_60_32581)">
<g clip-path="url(#clip1_60_32581)">
<path fill-rule="evenodd" clip-rule="evenodd" d="M17.8633 1.35491C17.8633 1.03286 17.7353 0.724004 17.5076 0.496281C17.2799 0.268559 16.971 0.140625 16.649 0.140625H2.07757C1.75552 0.140625 1.44666 0.268559 1.21894 0.496281C0.991213 0.724004 0.863281 1.03286 0.863281 1.35491C0.863281 1.67696 0.991213 1.98582 1.21894 2.21354C1.44666 2.44126 1.75552 2.5692 2.07757 2.5692H16.649C16.971 2.5692 17.2799 2.44126 17.5076 2.21354C17.7353 1.98582 17.8633 1.67696 17.8633 1.35491Z" fill="#3A643B"/>
<path fill-rule="evenodd" clip-rule="evenodd" d="M17.8633 7.42522C17.8633 7.10317 17.7353 6.79432 17.5076 6.56659C17.2799 6.33887 16.971 6.21094 16.649 6.21094H2.07757C1.75552 6.21094 1.44666 6.33887 1.21894 6.56659C0.991213 6.79432 0.863281 7.10317 0.863281 7.42522C0.863281 7.74727 0.991213 8.05613 1.21894 8.28385C1.44666 8.51158 1.75552 8.63951 2.07757 8.63951H16.649C16.971 8.63951 17.2799 8.51158 17.5076 8.28385C17.7353 8.05613 17.8633 7.74727 17.8633 7.42522Z" fill="#3A643B"/>
<path fill-rule="evenodd" clip-rule="evenodd" d="M17.8627 13.4955C17.8627 13.1735 17.7347 12.8646 17.507 12.6369C17.2793 12.4092 16.9704 12.2812 16.6484 12.2812H9.36272C9.04067 12.2812 8.73182 12.4092 8.50409 12.6369C8.27637 12.8646 8.14844 13.1735 8.14844 13.4955C8.14844 13.8176 8.27637 14.1264 8.50409 14.3542C8.73182 14.5819 9.04067 14.7098 9.36272 14.7098H16.6484C16.9704 14.7098 17.2793 14.5819 17.507 14.3542C17.7347 14.1264 17.8627 13.8176 17.8627 13.4955Z" fill="#3A643B"/>
</g>
</g>
<defs>
<clipPath id="clip0_60_32581">
<rect width="18" height="15" fill="white"/>
</clipPath>
<clipPath id="clip1_60_32581">
<rect width="18" height="15" fill="white"/>
</clipPath>
</defs>
</svg>
