<svg width="15" height="17" viewBox="0 0 15 17" fill="none" xmlns="http://www.w3.org/2000/svg">
<path d="M7.50253 0L7.71628 0.00149989C11.356 0.0494999 15.0025 1.3245 15.0025 3.24975V3.2775C15.0235 3.588 14.9485 3.91125 14.7543 4.20225L14.6868 4.296L12.7008 6.546C13.0308 6.72017 13.2843 7.01091 13.4118 7.36164C13.5394 7.71237 13.5319 8.098 13.3908 8.4435L13.3443 8.5455L12.5943 10.0455C12.479 10.2765 12.306 10.4737 12.0921 10.6183C11.8782 10.7628 11.6306 10.8497 11.3733 10.8705L11.2525 10.875H9.75178V14.625C9.75178 15.4155 9.39178 15.6353 8.61253 16.1227C7.83253 16.6103 7.58053 16.875 6.75253 16.875C6.37409 16.8751 6.0096 16.7322 5.73212 16.4749C5.45463 16.2176 5.28466 15.8649 5.25628 15.4875L5.25253 15.375V9.8895L0.318277 4.296C0.0911776 4.00904 -0.0210985 3.64789 0.00327656 3.28275L0.00252661 3.24975C0.00252661 1.28625 3.79303 0 7.50253 0ZM10.9405 6.30375C9.85678 6.58875 8.66353 6.75 7.50253 6.75C6.34078 6.75 5.14753 6.588 4.06378 6.30375L6.75253 9.375V15.375L8.25253 14.625V9.375L10.9405 6.30375ZM12.0025 7.875H11.5278L10.2048 9.37425L11.2525 9.375L12.0025 7.875ZM7.50253 1.5C4.18828 1.5 1.50253 2.69775 1.50253 3.24975C1.50253 3.8025 4.18828 5.25 7.50253 5.25C10.816 5.25 13.5025 3.8025 13.5025 3.24975C13.5025 2.69775 10.816 1.5 7.50253 1.5Z" fill="#3A643B"/>
</svg>
