<svg width="25" height="25" viewBox="0 0 25 25" fill="none" xmlns="http://www.w3.org/2000/svg">
<g clip-path="url(#clip0_60_32589)">
<g clip-path="url(#clip1_60_32589)">
<path opacity="0.4" d="M17.75 22H7.25001C4.1 22 2 20.4118 2 16.7058V9.29411C2 5.58823 4.1 4 7.25001 4H17.75C20.9 4 23 5.58823 23 9.29411V16.7058C23 20.4118 20.9 22 17.75 22Z" fill="#3A643B"/>
<path d="M13.0036 14C12.127 14 11.2399 13.719 10.5616 13.1461L7.29503 10.4439C6.96108 10.1628 6.89847 9.65483 7.16981 9.30895C7.44114 8.96306 7.93165 8.89822 8.2656 9.17924L11.5321 11.8814C12.3253 12.5408 13.6715 12.5408 14.4646 11.8814L17.7311 9.17924C18.0651 8.89822 18.5661 8.95226 18.827 9.30895C19.0983 9.65483 19.0461 10.1737 18.7017 10.4439L15.4352 13.1461C14.7673 13.719 13.8802 14 13.0036 14Z" fill="#3A643B"/>
</g>
</g>
<defs>
<clipPath id="clip0_60_32589">
<rect width="25" height="25" fill="white"/>
</clipPath>
<clipPath id="clip1_60_32589">
<rect width="25" height="25" fill="white"/>
</clipPath>
</defs>
</svg>
