<svg width="24" height="24" viewBox="0 0 24 24" fill="none" xmlns="http://www.w3.org/2000/svg">
<g clip-path="url(#clip0_60_32596)">
<path opacity="0.4" d="M19.8361 16.3221C19.5581 17.0743 18.9724 17.646 18.208 17.9068C17.1359 18.2678 16.034 18.5386 14.9222 18.7292C14.813 18.7493 14.7038 18.7693 14.5946 18.7794C14.4159 18.8094 14.2372 18.8295 14.0585 18.8496C13.8401 18.8796 13.6118 18.8997 13.3835 18.9198C12.7581 18.9699 12.1426 19 11.5172 19C10.8819 19 10.2465 18.9699 9.62112 18.9097C9.35309 18.8897 9.09499 18.8596 8.83688 18.8195C8.68798 18.7994 8.53907 18.7794 8.40009 18.7593C8.2909 18.7392 8.1817 18.7292 8.0725 18.7091C6.9706 18.5286 5.87862 18.2578 4.81643 17.8968C4.02226 17.626 3.41671 17.0543 3.14868 16.3221C2.88065 15.6 2.97992 14.7575 3.40678 14.0354L4.52854 12.1499C4.76679 11.7387 4.98519 10.9463 4.98519 10.4649V8.59939C4.98519 4.95869 7.91367 2 11.5172 2C15.1108 2 18.0393 4.95869 18.0393 8.59939V10.4649C18.0393 10.9463 18.2577 11.7387 18.5058 12.1499L19.6276 14.0354C20.0346 14.7375 20.114 15.5599 19.8361 16.3221Z" fill="#3A643B"/>
<path d="M12 11C11.4474 11 11 10.632 11 10.1775V6.82253C11 6.36798 11.4474 6 12 6C12.5526 6 13 6.36798 13 6.82253V10.1775C12.9868 10.632 12.5395 11 12 11Z" fill="#3A643B"/>
<path d="M15 20.01C14.554 21.17 13.3752 22 11.9947 22C11.1558 22 10.3274 21.68 9.74336 21.11C9.40354 20.81 9.14867 20.41 9 20C9.13805 20.02 9.27611 20.03 9.42478 20.05C9.66902 20.08 9.9239 20.11 10.1788 20.13C10.7841 20.18 11.4 20.21 12.0159 20.21C12.6212 20.21 13.2266 20.18 13.8212 20.13C14.0442 20.11 14.2673 20.1 14.4796 20.07C14.6496 20.05 14.8195 20.03 15 20.01Z" fill="#3A643B"/>
</g>
<defs>
<clipPath id="clip0_60_32596">
<rect width="24" height="24" fill="white"/>
</clipPath>
</defs>
</svg>
