<svg width="25" height="26" viewBox="0 0 25 26" fill="none" xmlns="http://www.w3.org/2000/svg">
<g clip-path="url(#clip0_60_32607)">
<path opacity="0.4" d="M2 13.9323V12.0677C2 10.9659 2.89206 10.0547 3.99401 10.0547C5.89356 10.0547 6.67017 8.69865 5.71514 7.03532C5.16942 6.08182 5.49475 4.84227 6.44978 4.29136L8.26537 3.24251C9.09446 2.74457 10.1649 3.04121 10.6582 3.87817L10.7736 4.07947C11.7182 5.74279 13.2714 5.74279 14.2264 4.07947L14.3419 3.87817C14.835 3.04121 15.9055 2.74457 16.7347 3.24251L18.5502 4.29136C19.5053 4.84227 19.8306 6.08182 19.2849 7.03532C18.3299 8.69865 19.1064 10.0547 21.006 10.0547C22.0975 10.0547 23 10.9552 23 12.0677V13.9323C23 15.0342 22.108 15.9453 21.006 15.9453C19.1064 15.9453 18.3299 17.3013 19.2849 18.9646C19.8306 19.9288 19.5053 21.1577 18.5502 21.7087L16.7347 22.7575C15.9055 23.2554 14.835 22.9588 14.3419 22.1218L14.2264 21.9205C13.2819 20.2572 11.7286 20.2572 10.7736 21.9205L10.6582 22.1218C10.1649 22.9588 9.09446 23.2554 8.26537 22.7575L6.44978 21.7087C5.49475 21.1577 5.16942 19.9181 5.71514 18.9646C6.67017 17.3013 5.89356 15.9453 3.99401 15.9453C2.89206 15.9453 2 15.0342 2 13.9323Z" fill="#3A643B"/>
<path d="M12.5 17C14.433 17 16 15.433 16 13.5C16 11.567 14.433 10 12.5 10C10.567 10 9 11.567 9 13.5C9 15.433 10.567 17 12.5 17Z" fill="#3A643B"/>
</g>
<defs>
<clipPath id="clip0_60_32607">
<rect width="25" height="26" fill="white"/>
</clipPath>
</defs>
</svg>
