<svg width="14" height="14" viewBox="0 0 14 14" fill="none" xmlns="http://www.w3.org/2000/svg">
<path fill-rule="evenodd" clip-rule="evenodd" d="M13.8204 3.93103C13.5781 4.18966 13.18 4.18966 12.9377 3.93103L11.328 2.25862V13.3793C11.328 13.7241 11.0511 14 10.7049 14C10.3588 14 10.0819 13.7241 10.0819 13.3793V2.25862L8.47223 3.93103C8.22992 4.18966 7.83183 4.18966 7.58952 3.93103C7.34721 3.67241 7.34721 3.25862 7.58952 3L10.203 0.258621C10.203 0.258621 10.203 0.258621 10.2203 0.241379L10.2549 0.206897C10.3588 0.086207 10.5146 0.0172414 10.6876 0.0172414C10.8607 0.0172414 11.0165 0.086207 11.1376 0.206897L13.8031 3C14.0627 3.25862 14.0627 3.67241 13.8204 3.93103ZM3.78178 13.7414L3.72986 13.7931C3.62601 13.9138 3.47024 13.9828 3.29716 13.9828C3.12408 13.9828 2.96831 13.9138 2.84715 13.7931L0.181733 11C-0.0605777 10.7414 -0.0605777 10.3276 0.181733 10.069C0.424044 9.81035 0.822127 9.81035 1.06444 10.069L2.67407 11.7414V0.62069C2.67407 0.275862 2.951 0 3.29716 0C3.64332 0 3.92024 0.275862 3.92024 0.62069V11.7414L5.52988 10.069C5.77219 9.81035 6.17027 9.81035 6.41258 10.069C6.65489 10.3276 6.65489 10.7414 6.41258 11L3.78178 13.7414Z" fill="#3A643B"/>
</svg>
