<svg width="24" height="24" viewBox="0 0 24 24" fill="none" xmlns="http://www.w3.org/2000/svg">
<path fill-rule="evenodd" clip-rule="evenodd" d="M17.1764 18.5162C16.1732 19.2691 15.294 19.9995 15.294 19.9995H8.70585C8.70585 19.9995 7.82668 19.2691 6.82351 18.5162C6.70755 18.4291 6.59543 18.3463 6.48695 18.2662C5.60616 17.6155 4.96588 17.1426 4.47058 16.0439C4.14621 15.3244 4 14.8623 4 14.0661C4 13.27 4.47058 12.0883 4.47058 12.0883L8.23526 9.61606L11.0588 7.63827C11.0588 7.63827 10.1176 7.19552 10.1176 6.64937C10.1176 6.15492 11.9999 5.16602 11.9999 5.16602C11.9999 5.16602 13.8823 6.15492 13.8823 6.64937C13.8823 7.19552 12.9411 7.63827 12.9411 7.63827L15.7646 9.61606L19.5293 12.0883C19.5293 12.0883 19.9999 13.27 19.9999 14.0661C19.9999 14.8623 19.8537 15.3244 19.5293 16.0439C19.034 17.1426 18.3937 17.6155 17.5129 18.2662C17.4045 18.3463 17.2923 18.4291 17.1764 18.5162ZM11.9993 18.5164C13.5587 18.5164 14.8228 17.1882 14.8228 15.5497C14.8228 13.9113 13.5587 12.583 11.9993 12.583C10.4399 12.583 9.17578 13.9113 9.17578 15.5497C9.17578 17.1882 10.4399 18.5164 11.9993 18.5164Z" fill="#3A643C" fill-opacity="0.4"/>
<path d="M15.294 19.9995V20.3495C15.3757 20.3495 15.4549 20.3209 15.5177 20.2687L15.294 19.9995ZM17.1764 18.5162L16.9663 18.2362L16.9663 18.2362L17.1764 18.5162ZM8.70585 19.9995L8.48218 20.2687C8.54502 20.3209 8.62414 20.3495 8.70585 20.3495V19.9995ZM6.82351 18.5162L7.0336 18.2362L6.82351 18.5162ZM6.48695 18.2662L6.69491 17.9847H6.69491L6.48695 18.2662ZM4.47058 16.0439L4.78966 15.9001H4.78966L4.47058 16.0439ZM4.47058 12.0883L4.27846 11.7958C4.21844 11.8352 4.17199 11.8921 4.14542 11.9588L4.47058 12.0883ZM8.23526 9.61606L8.42747 9.90875L8.43607 9.90273L8.23526 9.61606ZM11.0588 7.63827L11.2596 7.92493C11.3618 7.85332 11.4182 7.73268 11.4075 7.60832C11.3968 7.48395 11.3207 7.37469 11.2078 7.32156L11.0588 7.63827ZM11.9999 5.16602L12.1627 4.85617C12.0608 4.80263 11.9391 4.80263 11.8372 4.85617L11.9999 5.16602ZM12.9411 7.63827L12.7921 7.32156C12.6792 7.37469 12.6031 7.48395 12.5924 7.60832C12.5817 7.73268 12.6381 7.85332 12.7403 7.92493L12.9411 7.63827ZM15.7646 9.61606L15.5637 9.90286L15.5725 9.90862L15.7646 9.61606ZM19.5293 12.0883L19.8545 11.9588C19.8279 11.8921 19.7814 11.8352 19.7214 11.7958L19.5293 12.0883ZM19.5293 16.0439L19.8484 16.1878L19.5293 16.0439ZM17.5129 18.2662L17.305 17.9847L17.5129 18.2662ZM10.1176 9.76051C9.9243 9.76051 9.7676 9.91721 9.7676 10.1105C9.7676 10.3038 9.9243 10.4605 10.1176 10.4605V9.76051ZM13.8823 10.4605C14.0756 10.4605 14.2323 10.3038 14.2323 10.1105C14.2323 9.91721 14.0756 9.76051 13.8823 9.76051V10.4605ZM15.294 19.9995C15.5177 20.2687 15.5177 20.2687 15.5177 20.2687C15.5177 20.2687 15.5177 20.2687 15.5177 20.2687C15.5177 20.2687 15.5178 20.2687 15.5178 20.2686C15.5179 20.2686 15.518 20.2684 15.5182 20.2683C15.5186 20.268 15.5192 20.2675 15.52 20.2668C15.5216 20.2655 15.5241 20.2634 15.5273 20.2607C15.5339 20.2553 15.5436 20.2472 15.5565 20.2367C15.5821 20.2155 15.62 20.1843 15.6687 20.1445C15.766 20.0649 15.9064 19.9508 16.0779 19.8133C16.4213 19.538 16.8888 19.1696 17.3865 18.7961L17.1764 18.5162L16.9663 18.2362C16.4608 18.6156 15.9871 18.9889 15.6401 19.2671C15.4665 19.4063 15.3243 19.5218 15.2255 19.6027C15.176 19.6431 15.1374 19.6749 15.1111 19.6966C15.0979 19.7075 15.0878 19.7159 15.0809 19.7215C15.0775 19.7244 15.0749 19.7265 15.0731 19.728C15.0723 19.7287 15.0716 19.7293 15.0711 19.7297C15.0709 19.7299 15.0707 19.73 15.0706 19.7301C15.0705 19.7302 15.0705 19.7302 15.0704 19.7302C15.0704 19.7303 15.0704 19.7303 15.0704 19.7303C15.0704 19.7303 15.0704 19.7303 15.294 19.9995ZM8.70585 19.9995V20.3495H15.294V19.9995V19.6495H8.70585V19.9995ZM6.82351 18.5162L6.61342 18.7961C7.11109 19.1696 7.57859 19.538 7.92194 19.8133C8.09352 19.9508 8.23387 20.0649 8.3312 20.1445C8.37986 20.1843 8.41775 20.2155 8.44341 20.2367C8.45624 20.2472 8.466 20.2553 8.47253 20.2607C8.47579 20.2634 8.47824 20.2655 8.47986 20.2668C8.48066 20.2675 8.48126 20.268 8.48165 20.2683C8.48184 20.2684 8.48199 20.2686 8.48207 20.2686C8.48212 20.2687 8.48215 20.2687 8.48216 20.2687C8.48217 20.2687 8.48218 20.2687 8.48218 20.2687C8.48218 20.2687 8.48218 20.2687 8.70585 19.9995C8.92952 19.7303 8.92951 19.7303 8.92949 19.7303C8.92948 19.7303 8.92947 19.7303 8.92945 19.7302C8.92941 19.7302 8.92936 19.7302 8.9293 19.7301C8.92917 19.73 8.92899 19.7299 8.92876 19.7297C8.9283 19.7293 8.92762 19.7287 8.92673 19.728C8.92496 19.7265 8.92235 19.7244 8.91893 19.7215C8.91208 19.7159 8.90198 19.7075 8.88881 19.6966C8.86247 19.6749 8.82384 19.6431 8.77441 19.6027C8.67554 19.5218 8.5334 19.4063 8.35979 19.2671C8.01277 18.9889 7.53909 18.6156 7.0336 18.2362L6.82351 18.5162ZM6.48695 18.2662L6.27899 18.5477C6.3876 18.6279 6.49869 18.71 6.61342 18.7961L6.82351 18.5162L7.0336 18.2362C6.91642 18.1483 6.80325 18.0647 6.69491 17.9847L6.48695 18.2662ZM4.47058 16.0439L4.15151 16.1878C4.68733 17.3763 5.39567 17.8952 6.27899 18.5477L6.48695 18.2662L6.69491 17.9847C5.81665 17.3359 5.24442 16.9088 4.78966 15.9001L4.47058 16.0439ZM4 14.0661H3.65C3.65 14.9275 3.81437 15.4399 4.15151 16.1878L4.47058 16.0439L4.78966 15.9001C4.47806 15.2089 4.35 14.797 4.35 14.0661H4ZM4.47058 12.0883C4.14542 11.9588 4.1454 11.9589 4.14539 11.9589C4.14538 11.9589 4.14536 11.959 4.14534 11.959C4.14531 11.9591 4.14527 11.9592 4.14522 11.9593C4.14512 11.9596 4.145 11.9599 4.14484 11.9603C4.14454 11.961 4.14412 11.9621 4.14359 11.9634C4.14254 11.9661 4.14106 11.9699 4.13917 11.9748C4.13538 11.9845 4.12998 11.9984 4.12319 12.0163C4.1096 12.0521 4.09043 12.1035 4.06754 12.1674C4.02183 12.2951 3.9609 12.4738 3.89986 12.6787C3.78058 13.0792 3.65 13.6144 3.65 14.0661H4H4.35C4.35 13.7216 4.45472 13.268 4.57073 12.8786C4.62733 12.6885 4.68405 12.5221 4.72657 12.4034C4.7478 12.3441 4.76539 12.2969 4.77754 12.265C4.78362 12.249 4.78832 12.2368 4.79143 12.2288C4.79299 12.2248 4.79415 12.2219 4.79488 12.22C4.79524 12.2191 4.7955 12.2184 4.79564 12.2181C4.79572 12.2179 4.79576 12.2178 4.79578 12.2177C4.79579 12.2177 4.79579 12.2177 4.79579 12.2177C4.79578 12.2177 4.79577 12.2177 4.79577 12.2177C4.79576 12.2178 4.79575 12.2178 4.47058 12.0883ZM8.23526 9.61606L8.04314 9.32351L4.27846 11.7958L4.47058 12.0883L4.66271 12.3809L8.42738 9.90862L8.23526 9.61606ZM11.0588 7.63827L10.858 7.3516L8.03446 9.3294L8.23526 9.61606L8.43607 9.90273L11.2596 7.92493L11.0588 7.63827ZM10.1176 6.64937H9.7676C9.7676 6.88809 9.86996 7.0905 9.98409 7.24353C10.099 7.39765 10.2443 7.5268 10.3763 7.6272C10.5101 7.72893 10.6418 7.80985 10.739 7.865C10.7881 7.8928 10.8293 7.91459 10.8589 7.92973C10.8737 7.93731 10.8856 7.94326 10.8943 7.94749C10.8986 7.9496 10.9021 7.95129 10.9047 7.95254C10.906 7.95316 10.9071 7.95368 10.9079 7.95409C10.9083 7.95429 10.9087 7.95446 10.909 7.95461C10.9092 7.95469 10.9093 7.95475 10.9094 7.95481C10.9095 7.95484 10.9096 7.95488 10.9096 7.9549C10.9097 7.95494 10.9098 7.95497 11.0588 7.63827C11.2078 7.32156 11.2078 7.32159 11.2079 7.32162C11.2079 7.32163 11.208 7.32166 11.208 7.32168C11.2081 7.32171 11.2081 7.32174 11.2082 7.32176C11.2083 7.3218 11.2083 7.32181 11.2083 7.3218C11.2082 7.32177 11.2079 7.32165 11.2075 7.32142C11.2065 7.32096 11.2047 7.3201 11.2021 7.31883C11.197 7.31631 11.1887 7.31221 11.1778 7.30662C11.1559 7.29541 11.1236 7.27835 11.0844 7.25611C11.0051 7.21117 10.9016 7.14727 10.8001 7.07004C10.6968 6.99149 10.6068 6.90755 10.5452 6.82505C10.4829 6.74145 10.4676 6.68372 10.4676 6.64937H10.1176ZM11.9999 5.16602C11.8372 4.85617 11.8371 4.85619 11.8371 4.85622C11.8371 4.85623 11.837 4.85626 11.8369 4.85628C11.8369 4.85633 11.8367 4.8564 11.8366 4.85648C11.8363 4.85665 11.8358 4.85687 11.8353 4.85716C11.8342 4.85772 11.8327 4.85853 11.8307 4.85957C11.8268 4.86164 11.8212 4.86464 11.8139 4.86852C11.7994 4.87628 11.7784 4.88757 11.7518 4.90204C11.6986 4.93095 11.6231 4.9726 11.5327 5.02407C11.3523 5.12673 11.1102 5.26978 10.8666 5.42971C10.6255 5.58807 10.3719 5.77015 10.1748 5.95134C10.0767 6.04159 9.98262 6.14056 9.9107 6.24447C9.84325 6.34192 9.7676 6.48289 9.7676 6.64937H10.1176H10.4676C10.4676 6.69223 10.4508 6.69414 10.4863 6.64286C10.5173 6.59805 10.5703 6.53864 10.6486 6.46665C10.8045 6.32336 11.0215 6.1655 11.2509 6.01483C11.4779 5.86573 11.7064 5.73066 11.8789 5.63244C11.965 5.58348 12.0365 5.54401 12.0863 5.51691C12.1112 5.50337 12.1307 5.49293 12.1437 5.48597C12.1502 5.48248 12.1551 5.47987 12.1583 5.47817C12.1599 5.47732 12.1611 5.4767 12.1619 5.47631C12.1622 5.47612 12.1625 5.47598 12.1626 5.47591C12.1627 5.47587 12.1627 5.47585 12.1628 5.47584C12.1628 5.47583 12.1628 5.47584 12.1628 5.47584C12.1627 5.47585 12.1627 5.47586 11.9999 5.16602ZM13.8823 6.64937H14.2323C14.2323 6.48289 14.1566 6.34192 14.0892 6.24447C14.0173 6.14056 13.9232 6.04159 13.825 5.95134C13.628 5.77015 13.3744 5.58807 13.1332 5.42971C12.8897 5.26978 12.6475 5.12673 12.4672 5.02407C12.3767 4.9726 12.3012 4.93095 12.2481 4.90204C12.2215 4.88757 12.2005 4.87628 12.186 4.86852C12.1787 4.86464 12.1731 4.86164 12.1691 4.85957C12.1672 4.85853 12.1657 4.85772 12.1646 4.85716C12.164 4.85687 12.1636 4.85665 12.1633 4.85648C12.1632 4.8564 12.163 4.85633 12.1629 4.85628C12.1629 4.85626 12.1628 4.85623 12.1628 4.85622C12.1628 4.85619 12.1627 4.85617 11.9999 5.16602C11.8372 5.47586 11.8371 5.47585 11.8371 5.47584C11.8371 5.47584 11.8371 5.47583 11.8371 5.47584C11.8371 5.47585 11.8372 5.47587 11.8373 5.47591C11.8374 5.47598 11.8377 5.47612 11.838 5.47631C11.8388 5.4767 11.8399 5.47732 11.8415 5.47817C11.8447 5.47987 11.8497 5.48248 11.8562 5.48597C11.8692 5.49293 11.8886 5.50337 11.9135 5.51691C11.9633 5.54401 12.0349 5.58348 12.1209 5.63244C12.2935 5.73066 12.522 5.86573 12.749 6.01483C12.9784 6.1655 13.1954 6.32336 13.3513 6.46665C13.4296 6.53864 13.4826 6.59805 13.5136 6.64286C13.5491 6.69414 13.5323 6.69223 13.5323 6.64937H13.8823ZM12.9411 7.63827C13.0901 7.95497 13.0902 7.95494 13.0903 7.9549C13.0903 7.95488 13.0904 7.95484 13.0904 7.95481C13.0906 7.95475 13.0907 7.95469 13.0909 7.95461C13.0912 7.95446 13.0915 7.95429 13.092 7.95409C13.0928 7.95368 13.0939 7.95316 13.0952 7.95254C13.0978 7.95129 13.1013 7.9496 13.1056 7.94749C13.1143 7.94326 13.1262 7.93731 13.141 7.92973C13.1706 7.91459 13.2118 7.8928 13.2608 7.865C13.3581 7.80985 13.4898 7.72893 13.6236 7.6272C13.7556 7.5268 13.9008 7.39765 14.0158 7.24353C14.1299 7.0905 14.2323 6.88809 14.2323 6.64937H13.8823H13.5323C13.5323 6.68372 13.517 6.74145 13.4547 6.82505C13.3931 6.90755 13.3031 6.99149 13.1998 7.07004C13.0983 7.14727 12.9947 7.21117 12.9155 7.25611C12.8763 7.27835 12.844 7.29541 12.8221 7.30662C12.8111 7.31221 12.8029 7.31631 12.7977 7.31883C12.7952 7.3201 12.7934 7.32096 12.7924 7.32142C12.7919 7.32165 12.7917 7.32177 12.7916 7.3218C12.7916 7.32181 12.7916 7.3218 12.7917 7.32176C12.7917 7.32174 12.7918 7.32171 12.7919 7.32168C12.7919 7.32166 12.792 7.32163 12.792 7.32162C12.7921 7.32159 12.7921 7.32156 12.9411 7.63827ZM15.7646 9.61606L15.9654 9.3294L13.1419 7.3516L12.9411 7.63827L12.7403 7.92493L15.5638 9.90273L15.7646 9.61606ZM19.5293 12.0883L19.7214 11.7958L15.9567 9.32351L15.7646 9.61606L15.5725 9.90862L19.3372 12.3809L19.5293 12.0883ZM19.9999 14.0661H20.3499C20.3499 13.6144 20.2193 13.0792 20.1 12.6787C20.039 12.4738 19.9781 12.2951 19.9323 12.1674C19.9094 12.1035 19.8903 12.0521 19.8767 12.0163C19.8699 11.9984 19.8645 11.9845 19.8607 11.9748C19.8588 11.9699 19.8573 11.9661 19.8563 11.9634C19.8558 11.9621 19.8553 11.961 19.855 11.9603C19.8549 11.9599 19.8548 11.9596 19.8547 11.9593C19.8546 11.9592 19.8546 11.9591 19.8545 11.959C19.8545 11.959 19.8545 11.9589 19.8545 11.9589C19.8545 11.9589 19.8545 11.9588 19.5293 12.0883C19.2041 12.2178 19.2041 12.2178 19.2041 12.2177C19.2041 12.2177 19.2041 12.2177 19.2041 12.2177C19.2041 12.2177 19.2041 12.2177 19.2041 12.2177C19.2041 12.2178 19.2042 12.2179 19.2042 12.2181C19.2044 12.2184 19.2046 12.2191 19.205 12.22C19.2057 12.2219 19.2069 12.2248 19.2084 12.2288C19.2116 12.2368 19.2163 12.249 19.2223 12.265C19.2345 12.2969 19.2521 12.3441 19.2733 12.4034C19.3158 12.5221 19.3725 12.6885 19.4292 12.8786C19.5452 13.268 19.6499 13.7216 19.6499 14.0661H19.9999ZM19.5293 16.0439L19.8484 16.1878C20.1855 15.4399 20.3499 14.9275 20.3499 14.0661H19.9999H19.6499C19.6499 14.797 19.5218 15.2089 19.2102 15.9001L19.5293 16.0439ZM17.5129 18.2662L17.7209 18.5477C18.6042 17.8952 19.3125 17.3763 19.8484 16.1878L19.5293 16.0439L19.2102 15.9001C18.7555 16.9088 18.1832 17.3359 17.305 17.9847L17.5129 18.2662ZM17.1764 18.5162L17.3865 18.7961C17.5012 18.71 17.6123 18.6279 17.7209 18.5477L17.5129 18.2662L17.305 17.9847C17.1966 18.0647 17.0835 18.1483 16.9663 18.2362L17.1764 18.5162ZM14.8228 15.5497H14.4728C14.4728 17.0114 13.3493 18.1664 11.9993 18.1664V18.5164V18.8664C13.7681 18.8664 15.1728 17.365 15.1728 15.5497H14.8228ZM11.9993 12.583V12.933C13.3493 12.933 14.4728 14.0881 14.4728 15.5497H14.8228H15.1728C15.1728 13.7345 13.7681 12.233 11.9993 12.233V12.583ZM9.17578 15.5497H9.52578C9.52578 14.0881 10.6493 12.933 11.9993 12.933V12.583V12.233C10.2305 12.233 8.82578 13.7345 8.82578 15.5497H9.17578ZM11.9993 18.5164V18.1664C10.6493 18.1664 9.52578 17.0114 9.52578 15.5497H9.17578H8.82578C8.82578 17.365 10.2305 18.8664 11.9993 18.8664V18.5164ZM10.1176 10.1105V10.4605H13.8823V10.1105V9.76051H10.1176V10.1105Z" fill="#3A643C"/>
<path d="M12.7647 14.5294C12.8947 14.5294 13 14.4109 13 14.2647C13 14.1185 12.8947 14 12.7647 14V14.5294ZM11.6724 14C11.5425 14 11.4371 14.1185 11.4371 14.2647C11.4371 14.4109 11.5425 14.5294 11.6724 14.5294V14ZM11.6701 14C11.5402 14.0015 11.4359 14.1211 11.4371 14.2673C11.4384 14.4135 11.5447 14.5309 11.6747 14.5294L11.6701 14ZM12.3276 15.0059L12.5629 15.0086C12.5629 15.0068 12.5629 15.005 12.5629 15.0032L12.3276 15.0059ZM11.6724 15.7471L11.6747 15.4824H11.6724V15.7471ZM11.2353 15.7471V15.4824C11.1402 15.4824 11.0545 15.5467 11.018 15.6455C10.9815 15.7442 11.0015 15.8579 11.0685 15.9338L11.2353 15.7471ZM11.9424 16.922C12.034 17.0256 12.183 17.0261 12.2751 16.923C12.3673 16.8198 12.3677 16.6523 12.276 16.5486L11.9424 16.922ZM11.6724 14.5294C11.8024 14.5294 11.9077 14.4109 11.9077 14.2647C11.9077 14.1185 11.8024 14 11.6724 14V14.5294ZM11.2353 14C11.1054 14 11 14.1185 11 14.2647C11 14.4109 11.1054 14.5294 11.2353 14.5294V14ZM12.7647 15.2706C12.8947 15.2706 13 15.1521 13 15.0059C13 14.8597 12.8947 14.7412 12.7647 14.7412V15.2706ZM11.2353 14.7412C11.1054 14.7412 11 14.8597 11 15.0059C11 15.1521 11.1054 15.2706 11.2353 15.2706V14.7412ZM12.7647 14H11.6724V14.5294H12.7647V14ZM11.6747 14.5294C11.8974 14.527 12.0899 14.735 12.0923 15.0086L12.5629 15.0032C12.5579 14.4501 12.1639 13.9946 11.6701 14L11.6747 14.5294ZM12.0923 15.0032C12.0899 15.2768 11.8974 15.4848 11.6747 15.4824L11.6701 16.0117C12.1639 16.0171 12.5579 15.5617 12.5629 15.0086L12.0923 15.0032ZM11.6724 15.4824H11.2353V16.0118H11.6724V15.4824ZM11.0685 15.9338L11.9424 16.922L12.276 16.5486L11.4021 15.5604L11.0685 15.9338ZM11.6724 14H11.2353V14.5294H11.6724V14ZM12.7647 14.7412H11.2353V15.2706H12.7647V14.7412Z" fill="#3A643B"/>
</svg>
