<svg width="56" height="56" viewBox="0 0 56 56" fill="none" xmlns="http://www.w3.org/2000/svg">
<rect width="56" height="56" rx="8" fill="#F5F7F5"/>
<path fill-rule="evenodd" clip-rule="evenodd" d="M33.1764 34.5162C32.1732 35.2691 31.294 35.9995 31.294 35.9995H24.7058C24.7058 35.9995 23.8267 35.2691 22.8235 34.5162C22.7076 34.4291 22.5954 34.3463 22.4869 34.2662C21.6062 33.6155 20.9659 33.1426 20.4706 32.0439C20.1462 31.3244 20 30.8623 20 30.0661C20 29.27 20.4706 28.0883 20.4706 28.0883L24.2353 25.6161L27.0588 23.6383C27.0588 23.6383 26.1176 23.1955 26.1176 22.6494C26.1176 22.1549 27.9999 21.166 27.9999 21.166C27.9999 21.166 29.8823 22.1549 29.8823 22.6494C29.8823 23.1955 28.9411 23.6383 28.9411 23.6383L31.7646 25.6161L35.5293 28.0883C35.5293 28.0883 35.9999 29.27 35.9999 30.0661C35.9999 30.8623 35.8537 31.3244 35.5293 32.0439C35.034 33.1426 34.3937 33.6155 33.5129 34.2662C33.4045 34.3463 33.2923 34.4291 33.1764 34.5162ZM27.9993 34.5164C29.5587 34.5164 30.8228 33.1882 30.8228 31.5497C30.8228 29.9113 29.5587 28.583 27.9993 28.583C26.4399 28.583 25.1758 29.9113 25.1758 31.5497C25.1758 33.1882 26.4399 34.5164 27.9993 34.5164Z" fill="#3A643C" fill-opacity="0.4"/>
<path d="M31.294 35.9995V36.3495C31.3757 36.3495 31.4549 36.3209 31.5177 36.2687L31.294 35.9995ZM33.1764 34.5162L32.9663 34.2362L32.9663 34.2362L33.1764 34.5162ZM24.7058 35.9995L24.4822 36.2687C24.545 36.3209 24.6241 36.3495 24.7058 36.3495V35.9995ZM22.8235 34.5162L23.0336 34.2362L22.8235 34.5162ZM22.4869 34.2662L22.6949 33.9847H22.6949L22.4869 34.2662ZM20.4706 32.0439L20.7897 31.9001H20.7897L20.4706 32.0439ZM20.4706 28.0883L20.2785 27.7958C20.2184 27.8352 20.172 27.8921 20.1454 27.9588L20.4706 28.0883ZM24.2353 25.6161L24.4275 25.9088L24.4361 25.9027L24.2353 25.6161ZM27.0588 23.6383L27.2596 23.9249C27.3618 23.8533 27.4182 23.7327 27.4075 23.6083C27.3968 23.484 27.3207 23.3747 27.2078 23.3216L27.0588 23.6383ZM27.9999 21.166L28.1627 20.8562C28.0608 20.8026 27.9391 20.8026 27.8372 20.8562L27.9999 21.166ZM28.9411 23.6383L28.7921 23.3216C28.6792 23.3747 28.6031 23.484 28.5924 23.6083C28.5817 23.7327 28.6381 23.8533 28.7403 23.9249L28.9411 23.6383ZM31.7646 25.6161L31.5637 25.9029L31.5725 25.9086L31.7646 25.6161ZM35.5293 28.0883L35.8545 27.9588C35.8279 27.8921 35.7814 27.8352 35.7214 27.7958L35.5293 28.0883ZM35.5293 32.0439L35.8484 32.1878L35.5293 32.0439ZM33.5129 34.2662L33.305 33.9847L33.5129 34.2662ZM26.1176 25.7605C25.9243 25.7605 25.7676 25.9172 25.7676 26.1105C25.7676 26.3038 25.9243 26.4605 26.1176 26.4605V25.7605ZM29.8823 26.4605C30.0756 26.4605 30.2323 26.3038 30.2323 26.1105C30.2323 25.9172 30.0756 25.7605 29.8823 25.7605V26.4605ZM31.294 35.9995C31.5177 36.2687 31.5177 36.2687 31.5177 36.2687C31.5177 36.2687 31.5177 36.2687 31.5177 36.2687C31.5177 36.2687 31.5178 36.2687 31.5178 36.2686C31.5179 36.2686 31.518 36.2684 31.5182 36.2683C31.5186 36.268 31.5192 36.2675 31.52 36.2668C31.5216 36.2655 31.5241 36.2634 31.5273 36.2607C31.5339 36.2553 31.5436 36.2472 31.5565 36.2367C31.5821 36.2155 31.62 36.1843 31.6687 36.1445C31.766 36.0649 31.9064 35.9508 32.0779 35.8133C32.4213 35.538 32.8888 35.1696 33.3865 34.7961L33.1764 34.5162L32.9663 34.2362C32.4608 34.6156 31.9871 34.9889 31.6401 35.2671C31.4665 35.4063 31.3243 35.5218 31.2255 35.6027C31.176 35.6431 31.1374 35.6749 31.1111 35.6966C31.0979 35.7075 31.0878 35.7159 31.0809 35.7215C31.0775 35.7244 31.0749 35.7265 31.0731 35.728C31.0723 35.7287 31.0716 35.7293 31.0711 35.7297C31.0709 35.7299 31.0707 35.73 31.0706 35.7301C31.0705 35.7302 31.0705 35.7302 31.0704 35.7302C31.0704 35.7303 31.0704 35.7303 31.0704 35.7303C31.0704 35.7303 31.0704 35.7303 31.294 35.9995ZM24.7058 35.9995V36.3495H31.294V35.9995V35.6495H24.7058V35.9995ZM22.8235 34.5162L22.6134 34.7961C23.1111 35.1696 23.5786 35.538 23.9219 35.8133C24.0935 35.9508 24.2339 36.0649 24.3312 36.1445C24.3799 36.1843 24.4178 36.2155 24.4434 36.2367C24.4562 36.2472 24.466 36.2553 24.4725 36.2607C24.4758 36.2634 24.4782 36.2655 24.4799 36.2668C24.4807 36.2675 24.4813 36.268 24.4816 36.2683C24.4818 36.2684 24.482 36.2686 24.4821 36.2686C24.4821 36.2687 24.4821 36.2687 24.4822 36.2687C24.4822 36.2687 24.4822 36.2687 24.4822 36.2687C24.4822 36.2687 24.4822 36.2687 24.7058 35.9995C24.9295 35.7303 24.9295 35.7303 24.9295 35.7303C24.9295 35.7303 24.9295 35.7303 24.9294 35.7302C24.9294 35.7302 24.9294 35.7302 24.9293 35.7301C24.9292 35.73 24.929 35.7299 24.9288 35.7297C24.9283 35.7293 24.9276 35.7287 24.9267 35.728C24.925 35.7265 24.9224 35.7244 24.9189 35.7215C24.9121 35.7159 24.902 35.7075 24.8888 35.6966C24.8625 35.6749 24.8238 35.6431 24.7744 35.6027C24.6755 35.5218 24.5334 35.4063 24.3598 35.2671C24.0128 34.9889 23.5391 34.6156 23.0336 34.2362L22.8235 34.5162ZM22.4869 34.2662L22.279 34.5477C22.3876 34.6279 22.4987 34.71 22.6134 34.7961L22.8235 34.5162L23.0336 34.2362C22.9164 34.1483 22.8032 34.0647 22.6949 33.9847L22.4869 34.2662ZM20.4706 32.0439L20.1515 32.1878C20.6873 33.3763 21.3957 33.8952 22.279 34.5477L22.4869 34.2662L22.6949 33.9847C21.8166 33.3359 21.2444 32.9088 20.7897 31.9001L20.4706 32.0439ZM20 30.0661H19.65C19.65 30.9275 19.8144 31.4399 20.1515 32.1878L20.4706 32.0439L20.7897 31.9001C20.4781 31.2089 20.35 30.797 20.35 30.0661H20ZM20.4706 28.0883C20.1454 27.9588 20.1454 27.9589 20.1454 27.9589C20.1454 27.9589 20.1454 27.959 20.1453 27.959C20.1453 27.9591 20.1453 27.9592 20.1452 27.9593C20.1451 27.9596 20.145 27.9599 20.1448 27.9603C20.1445 27.961 20.1441 27.9621 20.1436 27.9634C20.1425 27.9661 20.1411 27.9699 20.1392 27.9748C20.1354 27.9845 20.13 27.9984 20.1232 28.0163C20.1096 28.0521 20.0904 28.1035 20.0675 28.1674C20.0218 28.2951 19.9609 28.4738 19.8999 28.6787C19.7806 29.0792 19.65 29.6144 19.65 30.0661H20H20.35C20.35 29.7216 20.4547 29.268 20.5707 28.8786C20.6273 28.6885 20.6841 28.5221 20.7266 28.4034C20.7478 28.3441 20.7654 28.2969 20.7775 28.265C20.7836 28.249 20.7883 28.2368 20.7914 28.2288C20.793 28.2248 20.7941 28.2219 20.7949 28.22C20.7952 28.2191 20.7955 28.2184 20.7956 28.2181C20.7957 28.2179 20.7958 28.2178 20.7958 28.2177C20.7958 28.2177 20.7958 28.2177 20.7958 28.2177C20.7958 28.2177 20.7958 28.2177 20.7958 28.2177C20.7958 28.2178 20.7957 28.2178 20.4706 28.0883ZM24.2353 25.6161L24.0431 25.3235L20.2785 27.7958L20.4706 28.0883L20.6627 28.3809L24.4274 25.9086L24.2353 25.6161ZM27.0588 23.6383L26.858 23.3516L24.0345 25.3294L24.2353 25.6161L24.4361 25.9027L27.2596 23.9249L27.0588 23.6383ZM26.1176 22.6494H25.7676C25.7676 22.8881 25.87 23.0905 25.9841 23.2435C26.099 23.3977 26.2443 23.5268 26.3763 23.6272C26.5101 23.7289 26.6418 23.8099 26.739 23.865C26.7881 23.8928 26.8293 23.9146 26.8589 23.9297C26.8737 23.9373 26.8856 23.9433 26.8943 23.9475C26.8986 23.9496 26.9021 23.9513 26.9047 23.9525C26.906 23.9532 26.9071 23.9537 26.9079 23.9541C26.9083 23.9543 26.9087 23.9545 26.909 23.9546C26.9092 23.9547 26.9093 23.9548 26.9094 23.9548C26.9095 23.9548 26.9096 23.9549 26.9096 23.9549C26.9097 23.9549 26.9098 23.955 27.0588 23.6383C27.2078 23.3216 27.2078 23.3216 27.2079 23.3216C27.2079 23.3216 27.208 23.3217 27.208 23.3217C27.2081 23.3217 27.2081 23.3217 27.2082 23.3218C27.2083 23.3218 27.2083 23.3218 27.2083 23.3218C27.2082 23.3218 27.2079 23.3216 27.2075 23.3214C27.2065 23.321 27.2047 23.3201 27.2021 23.3188C27.197 23.3163 27.1887 23.3122 27.1778 23.3066C27.1559 23.2954 27.1236 23.2784 27.0844 23.2561C27.0051 23.2112 26.9016 23.1473 26.8001 23.07C26.6968 22.9915 26.6068 22.9075 26.5452 22.825C26.4829 22.7415 26.4676 22.6837 26.4676 22.6494H26.1176ZM27.9999 21.166C27.8372 20.8562 27.8371 20.8562 27.8371 20.8562C27.8371 20.8562 27.837 20.8563 27.8369 20.8563C27.8369 20.8563 27.8367 20.8564 27.8366 20.8565C27.8363 20.8566 27.8358 20.8569 27.8353 20.8572C27.8342 20.8577 27.8327 20.8585 27.8307 20.8596C27.8268 20.8616 27.8212 20.8646 27.8139 20.8685C27.7994 20.8763 27.7784 20.8876 27.7518 20.902C27.6986 20.931 27.6231 20.9726 27.5327 21.0241C27.3523 21.1267 27.1102 21.2698 26.8666 21.4297C26.6255 21.5881 26.3719 21.7701 26.1748 21.9513C26.0767 22.0416 25.9826 22.1406 25.9107 22.2445C25.8432 22.3419 25.7676 22.4829 25.7676 22.6494H26.1176H26.4676C26.4676 22.6922 26.4508 22.6941 26.4863 22.6429C26.5173 22.598 26.5703 22.5386 26.6486 22.4667C26.8045 22.3234 27.0215 22.1655 27.2509 22.0148C27.4779 21.8657 27.7064 21.7307 27.8789 21.6324C27.965 21.5835 28.0365 21.544 28.0863 21.5169C28.1112 21.5034 28.1307 21.4929 28.1437 21.486C28.1502 21.4825 28.1551 21.4799 28.1583 21.4782C28.1599 21.4773 28.1611 21.4767 28.1619 21.4763C28.1622 21.4761 28.1625 21.476 28.1626 21.4759C28.1627 21.4759 28.1627 21.4758 28.1628 21.4758C28.1628 21.4758 28.1628 21.4758 28.1628 21.4758C28.1627 21.4758 28.1627 21.4759 27.9999 21.166ZM29.8823 22.6494H30.2323C30.2323 22.4829 30.1566 22.3419 30.0892 22.2445C30.0173 22.1406 29.9232 22.0416 29.825 21.9513C29.628 21.7701 29.3744 21.5881 29.1332 21.4297C28.8897 21.2698 28.6475 21.1267 28.4672 21.0241C28.3767 20.9726 28.3012 20.931 28.2481 20.902C28.2215 20.8876 28.2005 20.8763 28.186 20.8685C28.1787 20.8646 28.1731 20.8616 28.1691 20.8596C28.1672 20.8585 28.1657 20.8577 28.1646 20.8572C28.164 20.8569 28.1636 20.8566 28.1633 20.8565C28.1632 20.8564 28.163 20.8563 28.1629 20.8563C28.1629 20.8563 28.1628 20.8562 28.1628 20.8562C28.1628 20.8562 28.1627 20.8562 27.9999 21.166C27.8372 21.4759 27.8371 21.4758 27.8371 21.4758C27.8371 21.4758 27.8371 21.4758 27.8371 21.4758C27.8371 21.4758 27.8372 21.4759 27.8373 21.4759C27.8374 21.476 27.8377 21.4761 27.838 21.4763C27.8388 21.4767 27.8399 21.4773 27.8415 21.4782C27.8447 21.4799 27.8497 21.4825 27.8562 21.486C27.8692 21.4929 27.8886 21.5034 27.9135 21.5169C27.9633 21.544 28.0349 21.5835 28.1209 21.6324C28.2935 21.7307 28.522 21.8657 28.749 22.0148C28.9784 22.1655 29.1954 22.3234 29.3513 22.4667C29.4296 22.5386 29.4826 22.598 29.5136 22.6429C29.5491 22.6941 29.5323 22.6922 29.5323 22.6494H29.8823ZM28.9411 23.6383C29.0901 23.955 29.0902 23.9549 29.0903 23.9549C29.0903 23.9549 29.0904 23.9548 29.0904 23.9548C29.0906 23.9548 29.0907 23.9547 29.0909 23.9546C29.0912 23.9545 29.0915 23.9543 29.092 23.9541C29.0928 23.9537 29.0939 23.9532 29.0952 23.9525C29.0978 23.9513 29.1013 23.9496 29.1056 23.9475C29.1143 23.9433 29.1262 23.9373 29.141 23.9297C29.1706 23.9146 29.2118 23.8928 29.2608 23.865C29.3581 23.8099 29.4898 23.7289 29.6236 23.6272C29.7556 23.5268 29.9008 23.3977 30.0158 23.2435C30.1299 23.0905 30.2323 22.8881 30.2323 22.6494H29.8823H29.5323C29.5323 22.6837 29.517 22.7415 29.4547 22.825C29.3931 22.9075 29.3031 22.9915 29.1998 23.07C29.0983 23.1473 28.9947 23.2112 28.9155 23.2561C28.8763 23.2784 28.844 23.2954 28.8221 23.3066C28.8111 23.3122 28.8029 23.3163 28.7977 23.3188C28.7952 23.3201 28.7934 23.321 28.7924 23.3214C28.7919 23.3216 28.7917 23.3218 28.7916 23.3218C28.7916 23.3218 28.7916 23.3218 28.7917 23.3218C28.7917 23.3217 28.7918 23.3217 28.7919 23.3217C28.7919 23.3217 28.792 23.3216 28.792 23.3216C28.7921 23.3216 28.7921 23.3216 28.9411 23.6383ZM31.7646 25.6161L31.9654 25.3294L29.1419 23.3516L28.9411 23.6383L28.7403 23.9249L31.5638 25.9027L31.7646 25.6161ZM35.5293 28.0883L35.7214 27.7958L31.9567 25.3235L31.7646 25.6161L31.5725 25.9086L35.3372 28.3809L35.5293 28.0883ZM35.9999 30.0661H36.3499C36.3499 29.6144 36.2193 29.0792 36.1 28.6787C36.039 28.4738 35.9781 28.2951 35.9323 28.1674C35.9094 28.1035 35.8903 28.0521 35.8767 28.0163C35.8699 27.9984 35.8645 27.9845 35.8607 27.9748C35.8588 27.9699 35.8573 27.9661 35.8563 27.9634C35.8558 27.9621 35.8553 27.961 35.855 27.9603C35.8549 27.9599 35.8548 27.9596 35.8547 27.9593C35.8546 27.9592 35.8546 27.9591 35.8545 27.959C35.8545 27.959 35.8545 27.9589 35.8545 27.9589C35.8545 27.9589 35.8545 27.9588 35.5293 28.0883C35.2041 28.2178 35.2041 28.2178 35.2041 28.2177C35.2041 28.2177 35.2041 28.2177 35.2041 28.2177C35.2041 28.2177 35.2041 28.2177 35.2041 28.2177C35.2041 28.2178 35.2042 28.2179 35.2042 28.2181C35.2044 28.2184 35.2046 28.2191 35.205 28.22C35.2057 28.2219 35.2069 28.2248 35.2084 28.2288C35.2116 28.2368 35.2163 28.249 35.2223 28.265C35.2345 28.2969 35.2521 28.3441 35.2733 28.4034C35.3158 28.5221 35.3725 28.6885 35.4292 28.8786C35.5452 29.268 35.6499 29.7216 35.6499 30.0661H35.9999ZM35.5293 32.0439L35.8484 32.1878C36.1855 31.4399 36.3499 30.9275 36.3499 30.0661H35.9999H35.6499C35.6499 30.797 35.5218 31.2089 35.2102 31.9001L35.5293 32.0439ZM33.5129 34.2662L33.7209 34.5477C34.6042 33.8952 35.3125 33.3763 35.8484 32.1878L35.5293 32.0439L35.2102 31.9001C34.7555 32.9088 34.1832 33.3359 33.305 33.9847L33.5129 34.2662ZM33.1764 34.5162L33.3865 34.7961C33.5012 34.71 33.6123 34.6279 33.7209 34.5477L33.5129 34.2662L33.305 33.9847C33.1966 34.0647 33.0835 34.1483 32.9663 34.2362L33.1764 34.5162ZM30.8228 31.5497H30.4728C30.4728 33.0114 29.3493 34.1664 27.9993 34.1664V34.5164V34.8664C29.7681 34.8664 31.1728 33.365 31.1728 31.5497H30.8228ZM27.9993 28.583V28.933C29.3493 28.933 30.4728 30.0881 30.4728 31.5497H30.8228H31.1728C31.1728 29.7345 29.7681 28.233 27.9993 28.233V28.583ZM25.1758 31.5497H25.5258C25.5258 30.0881 26.6493 28.933 27.9993 28.933V28.583V28.233C26.2305 28.233 24.8258 29.7345 24.8258 31.5497H25.1758ZM27.9993 34.5164V34.1664C26.6493 34.1664 25.5258 33.0114 25.5258 31.5497H25.1758H24.8258C24.8258 33.365 26.2305 34.8664 27.9993 34.8664V34.5164ZM26.1176 26.1105V26.4605H29.8823V26.1105V25.7605H26.1176V26.1105Z" fill="#3A643C"/>
<path d="M28.7647 30.5294C28.8947 30.5294 29 30.4109 29 30.2647C29 30.1185 28.8947 30 28.7647 30V30.5294ZM27.6724 30C27.5425 30 27.4371 30.1185 27.4371 30.2647C27.4371 30.4109 27.5425 30.5294 27.6724 30.5294V30ZM27.6701 30C27.5402 30.0015 27.4359 30.1211 27.4371 30.2673C27.4384 30.4135 27.5447 30.5309 27.6747 30.5294L27.6701 30ZM28.3276 31.0059L28.5629 31.0086C28.5629 31.0068 28.5629 31.005 28.5629 31.0032L28.3276 31.0059ZM27.6724 31.7471L27.6747 31.4824H27.6724V31.7471ZM27.2353 31.7471V31.4824C27.1402 31.4824 27.0545 31.5467 27.018 31.6455C26.9815 31.7442 27.0015 31.8579 27.0685 31.9338L27.2353 31.7471ZM27.9424 32.922C28.034 33.0256 28.183 33.0261 28.2751 32.923C28.3673 32.8198 28.3677 32.6523 28.276 32.5486L27.9424 32.922ZM27.6724 30.5294C27.8024 30.5294 27.9077 30.4109 27.9077 30.2647C27.9077 30.1185 27.8024 30 27.6724 30V30.5294ZM27.2353 30C27.1054 30 27 30.1185 27 30.2647C27 30.4109 27.1054 30.5294 27.2353 30.5294V30ZM28.7647 31.2706C28.8947 31.2706 29 31.1521 29 31.0059C29 30.8597 28.8947 30.7412 28.7647 30.7412V31.2706ZM27.2353 30.7412C27.1054 30.7412 27 30.8597 27 31.0059C27 31.1521 27.1054 31.2706 27.2353 31.2706V30.7412ZM28.7647 30H27.6724V30.5294H28.7647V30ZM27.6747 30.5294C27.8974 30.527 28.0899 30.735 28.0923 31.0086L28.5629 31.0032C28.5579 30.4501 28.1639 29.9946 27.6701 30L27.6747 30.5294ZM28.0923 31.0032C28.0899 31.2768 27.8974 31.4848 27.6747 31.4824L27.6701 32.0117C28.1639 32.0171 28.5579 31.5617 28.5629 31.0086L28.0923 31.0032ZM27.6724 31.4824H27.2353V32.0118H27.6724V31.4824ZM27.0685 31.9338L27.9424 32.922L28.276 32.5486L27.4021 31.5604L27.0685 31.9338ZM27.6724 30H27.2353V30.5294H27.6724V30ZM28.7647 30.7412H27.2353V31.2706H28.7647V30.7412Z" fill="#3A643B"/>
</svg>
