<svg width="24" height="24" viewBox="0 0 24 24" fill="none" xmlns="http://www.w3.org/2000/svg">
<path d="M7.79559 19.2017V20H11V18.4034L10.4659 16.4076L8.86373 13.6135C8.86373 13.6135 8.62462 13.2143 8.32966 13.2143C8.03471 13.2143 7.79553 13.393 7.79559 13.6135C7.79585 14.411 7.79559 16.0084 7.79559 16.0084L6.19339 14.0126C6.19339 14.0126 6.19369 11.6176 6.19339 10.4202C6.19331 10.0716 5.93908 10.0903 5.65895 10.0206C5.21648 9.91046 4.63124 10.2714 4.59119 10.4202C4.05395 12.416 3.90323 13.0365 4.05738 14.0119C4.21152 14.9872 7.79559 18.8899 7.79559 19.2017Z" fill="#3A643C" fill-opacity="0.4" stroke="#3A643C" stroke-width="0.7" stroke-linecap="round" stroke-linejoin="round"/>
<path d="M16.2044 19.2017V20H13V18.4034L13.5341 16.4076L15.1363 13.6135C15.1363 13.6135 15.3754 13.2143 15.6703 13.2143C15.9653 13.2143 16.2045 13.393 16.2044 13.6135C16.2042 14.411 16.2044 16.0084 16.2044 16.0084L17.8066 14.0126C17.8066 14.0126 17.8063 11.6176 17.8066 10.4202C17.8067 10.0716 18.0609 10.0903 18.341 10.0206C18.7835 9.91046 19.3688 10.2714 19.4088 10.4202C19.946 12.416 20.0968 13.0365 19.9426 14.0119C19.7885 14.9872 16.2044 18.8899 16.2044 19.2017Z" fill="#3A643C" fill-opacity="0.4" stroke="#3A643C" stroke-width="0.7" stroke-linecap="round" stroke-linejoin="round"/>
<path d="M14.2958 9.01331C13.5132 9.57675 12.0018 10.0395 12.0018 10.0395C12.0018 10.0395 12.3967 9.84359 12.5496 9.63527C12.8235 9.26208 12.9409 8.8889 13.0974 8.51573C13.2903 8.05584 13.3532 7.68241 13.4398 7.334C13.579 6.77424 13.6795 6.30777 13.9534 5.68581C14.1711 5.19146 14.3108 4.94997 14.8779 4.81507C15.1624 4.74738 15.3557 4.72132 15.6311 4.81507C16.125 4.98318 16.2272 5.40018 16.3159 5.87241C16.4234 6.44466 15.8708 7.30292 15.8708 7.30292C15.8708 7.30292 15.0471 8.47238 14.2958 9.01331Z" fill="#3A643C" fill-opacity="0.4"/>
<path d="M12.0018 10.0395C12.0018 10.0395 12.7706 10.2867 13.2344 10.3574C13.8547 10.452 14.2213 10.5027 14.8436 10.4196C15.3416 10.3531 15.64 10.3056 16.0762 10.0775C16.4621 9.87575 16.6735 9.72256 16.9322 9.39336C17.2077 9.04274 17.3584 8.79753 17.3773 8.36712C17.3881 8.12171 17.4138 7.9557 17.2746 7.74516C17.1573 7.56788 17.0445 7.47102 16.8295 7.40309C16.6018 7.33116 16.4401 7.36036 16.2132 7.43418C16.0836 7.47635 16.0183 7.51857 15.905 7.58967C15.7571 7.68259 15.6357 7.73274 15.5057 7.84566C15.4101 7.92876 15.3918 7.94538 15.3003 8.03226C15.0098 8.3747 14.645 8.76189 14.2958 9.01331C13.5132 9.57675 12.0018 10.0395 12.0018 10.0395Z" fill="#3A643C" fill-opacity="0.4"/>
<path d="M9.70781 9.01331C10.4904 9.57675 12.0018 10.0395 12.0018 10.0395C12.0018 10.0395 11.6069 9.84359 11.454 9.63527C11.1801 9.26208 11.0627 8.8889 10.9062 8.51573C10.7133 8.05584 10.6504 7.68241 10.5638 7.334C10.4246 6.77424 10.3241 6.30777 10.0502 5.68581C9.83252 5.19146 9.69282 4.94997 9.12575 4.81507C8.84118 4.74738 8.64795 4.72132 8.37249 4.81507C7.8786 4.98318 7.77644 5.40018 7.68772 5.87241C7.5802 6.44466 8.13282 7.30292 8.13282 7.30292C8.13282 7.30292 8.95651 8.47238 9.70781 9.01331Z" fill="#3A643C" fill-opacity="0.4"/>
<path d="M12.0018 10.0395C12.0018 10.0395 11.233 10.2867 10.7692 10.3574C10.1489 10.452 9.78229 10.5027 9.15997 10.4196C8.662 10.3531 8.3636 10.3056 7.92738 10.0775C7.54147 9.87575 7.33006 9.72256 7.07141 9.39336C6.79593 9.04274 6.64522 8.79753 6.62631 8.36712C6.61552 8.12171 6.58977 7.9557 6.72902 7.74516C6.84628 7.56788 6.95906 7.47102 7.17413 7.40309C7.4018 7.33116 7.56349 7.36036 7.79042 7.43418C7.92003 7.47635 7.98533 7.51857 8.09857 7.58967C8.24654 7.68259 8.36788 7.73274 8.49789 7.84566C8.59355 7.92876 8.61181 7.94538 8.70329 8.03226C8.99379 8.3747 9.35862 8.76189 9.70781 9.01331C10.4904 9.57675 12.0018 10.0395 12.0018 10.0395Z" fill="#3A643C" fill-opacity="0.4"/>
<path d="M13.4398 7.334C13.579 6.77424 13.6795 6.30777 13.9534 5.68581C13.9278 5.09539 13.6167 4.51654 13.0114 4.23533C12.336 3.92156 11.6676 3.92156 10.9922 4.23533C10.3869 4.51654 10.0758 5.09538 10.0502 5.68581C10.3241 6.30777 10.4246 6.77424 10.5638 7.334C10.6504 7.68241 10.7133 8.05584 10.9062 8.51573C11.0627 8.8889 11.1801 9.26208 11.454 9.63527C11.6069 9.84359 12.0018 10.0395 12.0018 10.0395C12.0018 10.0395 12.3967 9.84359 12.5496 9.63527C12.8235 9.26208 12.9409 8.8889 13.0974 8.51573C13.2903 8.05584 13.3532 7.68241 13.4398 7.334Z" fill="#3A643C" fill-opacity="0.4"/>
<path d="M13.2344 10.3574L13.2872 10.0114L13.2344 10.3574ZM14.8436 10.4196L14.7973 10.0727L14.8436 10.4196ZM16.0762 10.0775L16.2384 10.3877L16.0762 10.0775ZM16.9322 9.39336L17.2074 9.60959L16.9322 9.39336ZM17.3773 8.36712L17.0276 8.35176L17.3773 8.36712ZM17.2746 7.74516L17.5665 7.55208L17.2746 7.74516ZM16.8295 7.40309L16.7241 7.73683L16.8295 7.40309ZM16.2132 7.43418L16.1049 7.10135L16.2132 7.43418ZM15.905 7.58967L16.0912 7.88608L15.905 7.58967ZM15.5057 7.84566L15.7352 8.1099L15.5057 7.84566ZM15.3003 8.03226L15.0593 7.77847C15.0502 7.78713 15.0415 7.79626 15.0334 7.80585L15.3003 8.03226ZM14.2958 9.01331L14.5003 9.29735L14.2958 9.01331ZM15.8708 7.30292L16.1569 7.50446C16.1597 7.50049 16.1624 7.49647 16.1651 7.4924L15.8708 7.30292ZM16.3159 5.87241L15.9719 5.93703L16.3159 5.87241ZM15.6311 4.81507L15.7439 4.48374L15.6311 4.81507ZM14.8779 4.81507L14.7969 4.47458L14.8779 4.81507ZM13.4398 7.334L13.1001 7.24956V7.24956L13.4398 7.334ZM13.0974 8.51573L12.7746 8.38037L13.0974 8.51573ZM12.5496 9.63527L12.8318 9.84234V9.84234L12.5496 9.63527ZM10.7692 10.3574L10.7164 10.0114L10.7692 10.3574ZM9.15997 10.4196L9.20631 10.0727H9.20631L9.15997 10.4196ZM7.92738 10.0775L7.76522 10.3877H7.76522L7.92738 10.0775ZM7.07141 9.39336L6.7962 9.60959H6.7962L7.07141 9.39336ZM6.62631 8.36712L6.97597 8.35176L6.62631 8.36712ZM6.72902 7.74516L6.4371 7.55208H6.4371L6.72902 7.74516ZM7.17413 7.40309L7.27955 7.73683L7.17413 7.40309ZM7.79042 7.43418L7.8987 7.10135L7.79042 7.43418ZM8.09857 7.58967L7.91245 7.88608H7.91245L8.09857 7.58967ZM8.49789 7.84566L8.26836 8.1099L8.49789 7.84566ZM8.70329 8.03226L8.9702 7.80585C8.96207 7.79626 8.95343 7.78713 8.94432 7.77847L8.70329 8.03226ZM9.70781 9.01331L9.91231 8.72927L9.70781 9.01331ZM8.13282 7.30292L7.83855 7.4924C7.84117 7.49647 7.84388 7.50049 7.84667 7.50446L8.13282 7.30292ZM7.68772 5.87241L8.0317 5.93703L7.68772 5.87241ZM8.37249 4.81507L8.25972 4.48374L8.37249 4.81507ZM9.12575 4.81507L9.20674 4.47458L9.12575 4.81507ZM10.5638 7.334L10.9035 7.24956V7.24956L10.5638 7.334ZM10.9062 8.51573L11.229 8.38037L10.9062 8.51573ZM11.454 9.63527L11.1718 9.84234V9.84234L11.454 9.63527ZM10.9922 4.23533L11.1397 4.55275L10.9922 4.23533ZM13.0114 4.23533L13.1589 3.91792L13.0114 4.23533ZM12.3518 10.0775C12.3518 9.88422 12.1951 9.72752 12.0018 9.72752C11.8085 9.72752 11.6518 9.88422 11.6518 10.0775H12.3518ZM11.6518 11C11.6518 11.1933 11.8085 11.35 12.0018 11.35C12.1951 11.35 12.3518 11.1933 12.3518 11H11.6518ZM12.0018 10.0395C11.8947 10.3727 11.8947 10.3728 11.8947 10.3728C11.8947 10.3728 11.8948 10.3728 11.8948 10.3728C11.8948 10.3728 11.8949 10.3728 11.895 10.3728C11.8951 10.3729 11.8953 10.3729 11.8955 10.373C11.8959 10.3732 11.8966 10.3734 11.8974 10.3736C11.899 10.3741 11.9014 10.3749 11.9044 10.3759C11.9105 10.3778 11.9194 10.3806 11.9307 10.3842C11.9534 10.3913 11.9862 10.4015 12.0268 10.4139C12.1079 10.4388 12.221 10.4726 12.3491 10.5088C12.6006 10.5798 12.9267 10.6645 13.1817 10.7034L13.2344 10.3574L13.2872 10.0114C13.0783 9.97956 12.7881 9.90536 12.5393 9.83512C12.4172 9.80065 12.3091 9.7683 12.2316 9.74458C12.1929 9.73273 12.1619 9.72307 12.1407 9.71642C12.1302 9.71309 12.122 9.71052 12.1167 9.7088C12.114 9.70795 12.1119 9.7073 12.1106 9.70689C12.11 9.70668 12.1095 9.70653 12.1092 9.70643C12.1091 9.70639 12.109 9.70636 12.1089 9.70634C12.1089 9.70633 12.1089 9.70633 12.1089 9.70633C12.1089 9.70633 12.1089 9.70633 12.1089 9.70633C12.1089 9.70633 12.1089 9.70633 12.0018 10.0395ZM13.2344 10.3574L13.1817 10.7034C13.8088 10.799 14.2161 10.8565 14.89 10.7665L14.8436 10.4196L14.7973 10.0727C14.2265 10.1489 13.9007 10.1049 13.2872 10.0114L13.2344 10.3574ZM14.8436 10.4196L14.89 10.7665C15.3966 10.6988 15.7456 10.6453 16.2384 10.3877L16.0762 10.0775L15.9141 9.76735C15.5344 9.96586 15.2866 10.0073 14.7973 10.0727L14.8436 10.4196ZM16.0762 10.0775L16.2384 10.3877C16.6556 10.1696 16.9104 9.9876 17.2074 9.60959L16.9322 9.39336L16.657 9.17712C16.4367 9.45752 16.2687 9.58193 15.9141 9.76735L16.0762 10.0775ZM16.9322 9.39336L17.2074 9.60959C17.4996 9.23766 17.7033 8.92144 17.727 8.38249L17.3773 8.36712L17.0276 8.35176C17.0135 8.67361 16.9157 8.84781 16.657 9.17712L16.9322 9.39336ZM17.3773 8.36712L17.727 8.38249C17.7363 8.17004 17.7807 7.87588 17.5665 7.55208L17.2746 7.74516L16.9827 7.93825C17.019 7.99314 17.0295 8.03205 17.0339 8.07709C17.0403 8.14312 17.034 8.20596 17.0276 8.35176L17.3773 8.36712ZM17.2746 7.74516L17.5665 7.55208C17.4957 7.44506 17.4143 7.34393 17.3051 7.25805C17.1948 7.17125 17.0725 7.11282 16.9349 7.06934L16.8295 7.40309L16.7241 7.73683C16.8015 7.76129 16.8431 7.78526 16.8723 7.80819C16.9026 7.83205 16.9362 7.86799 16.9827 7.93825L17.2746 7.74516ZM16.8295 7.40309L16.9349 7.06934C16.6074 6.96589 16.3633 7.01729 16.1049 7.10135L16.2132 7.43418L16.3215 7.76702C16.5169 7.70344 16.5962 7.69644 16.7241 7.73683L16.8295 7.40309ZM16.2132 7.43418L16.1049 7.10135C15.9303 7.15815 15.833 7.22165 15.7189 7.29326L15.905 7.58967L16.0912 7.88608C16.2036 7.81549 16.2368 7.79454 16.3215 7.76702L16.2132 7.43418ZM15.905 7.58967L15.7189 7.29326C15.6485 7.33751 15.6048 7.35933 15.5212 7.40845C15.4466 7.45234 15.3637 7.50544 15.2762 7.58143L15.5057 7.84566L15.7352 8.1099C15.7778 8.07296 15.8205 8.04452 15.876 8.01187C15.9227 7.98446 16.0136 7.93476 16.0912 7.88608L15.905 7.58967ZM15.5057 7.84566L15.2762 7.58143C15.1766 7.66795 15.1545 7.68805 15.0593 7.77847L15.3003 8.03226L15.5413 8.28605C15.6291 8.2027 15.6435 8.18957 15.7352 8.1099L15.5057 7.84566ZM12.0018 10.0395C12.1043 10.3742 12.1043 10.3742 12.1044 10.3742C12.1044 10.3742 12.1044 10.3742 12.1045 10.3741C12.1046 10.3741 12.1047 10.3741 12.1048 10.374C12.1051 10.374 12.1054 10.3738 12.1059 10.3737C12.1068 10.3734 12.1081 10.373 12.1097 10.3725C12.1129 10.3715 12.1176 10.3701 12.1236 10.3682C12.1356 10.3644 12.153 10.359 12.1752 10.3518C12.2197 10.3375 12.2836 10.3167 12.3626 10.2899C12.5203 10.2364 12.7389 10.1591 12.9829 10.0637C13.4625 9.87598 14.071 9.6064 14.5003 9.29735L14.2958 9.01331L14.0913 8.72927C13.738 8.98366 13.1995 9.2272 12.7278 9.41178C12.4961 9.50244 12.2879 9.57606 12.1378 9.62696C12.0628 9.65238 12.0025 9.67207 11.9613 9.6853C11.9407 9.69191 11.9249 9.69691 11.9144 9.70021C11.9091 9.70185 11.9052 9.70307 11.9026 9.70386C11.9014 9.70425 11.9005 9.70453 11.8999 9.7047C11.8996 9.70478 11.8994 9.70484 11.8993 9.70487C11.8993 9.70489 11.8993 9.70489 11.8993 9.7049C11.8993 9.7049 11.8993 9.70489 11.8993 9.70489C11.8993 9.70489 11.8993 9.70488 12.0018 10.0395ZM14.2958 9.01331L14.5003 9.29735C14.9135 8.99986 15.3304 8.54375 15.634 8.17926C15.7883 7.99393 15.9183 7.82622 16.0099 7.70469C16.0557 7.64386 16.0921 7.59441 16.1171 7.55989C16.1297 7.54262 16.1394 7.52908 16.1461 7.5197C16.1495 7.51501 16.152 7.51135 16.1539 7.5088C16.1548 7.50752 16.1555 7.50651 16.156 7.50579C16.1563 7.50542 16.1565 7.50513 16.1566 7.50491C16.1567 7.5048 16.1568 7.5047 16.1568 7.50463C16.1568 7.50459 16.1569 7.50455 16.1569 7.50453C16.1569 7.50449 16.1569 7.50446 15.8708 7.30292C15.5846 7.10137 15.5847 7.10135 15.5847 7.10133C15.5847 7.10133 15.5847 7.10131 15.5847 7.10131C15.5847 7.1013 15.5847 7.10132 15.5847 7.10135C15.5846 7.10141 15.5845 7.10154 15.5844 7.10175C15.5841 7.10215 15.5836 7.10283 15.5829 7.10378C15.5816 7.10568 15.5795 7.10866 15.5766 7.11267C15.5709 7.12068 15.5622 7.13279 15.5507 7.14856C15.5278 7.18011 15.4939 7.22625 15.4508 7.2835C15.3644 7.39816 15.2416 7.55661 15.0961 7.73127C14.8 8.08674 14.4294 8.48582 14.0913 8.72927L14.2958 9.01331ZM15.8708 7.30292C16.1651 7.4924 16.1651 7.49234 16.1651 7.49227C16.1652 7.49225 16.1652 7.49218 16.1652 7.49213C16.1653 7.49203 16.1654 7.49191 16.1655 7.49179C16.1656 7.49153 16.1658 7.49122 16.166 7.49086C16.1665 7.49014 16.1671 7.4892 16.1678 7.48806C16.1693 7.48579 16.1712 7.48269 16.1737 7.47881C16.1785 7.47105 16.1853 7.46012 16.1936 7.44633C16.2103 7.41877 16.2335 7.37958 16.2607 7.33105C16.3149 7.23442 16.3863 7.09856 16.4545 6.94212C16.5816 6.65053 16.7348 6.20654 16.6599 5.80778L16.3159 5.87241L15.9719 5.93703C16.0045 6.11053 15.9351 6.38179 15.8128 6.6624C15.7563 6.79205 15.6962 6.90652 15.6502 6.9887C15.6272 7.02957 15.6081 7.0619 15.595 7.08351C15.5885 7.0943 15.5835 7.10238 15.5803 7.10747C15.5787 7.11001 15.5775 7.1118 15.5769 7.11281C15.5766 7.11331 15.5764 7.11362 15.5763 7.11372C15.5763 7.11378 15.5763 7.11378 15.5763 7.11373C15.5763 7.11371 15.5764 7.11367 15.5764 7.11362C15.5764 7.1136 15.5764 7.11355 15.5764 7.11354C15.5765 7.11349 15.5765 7.11344 15.8708 7.30292ZM16.3159 5.87241L16.6599 5.80778C16.6163 5.57608 16.5613 5.30292 16.4342 5.06489C16.2971 4.80796 16.0809 4.59845 15.7439 4.48374L15.6311 4.81507L15.5183 5.14641C15.6752 5.19981 15.7571 5.28285 15.8167 5.3945C15.8864 5.52505 15.9267 5.69651 15.9719 5.93703L16.3159 5.87241ZM15.6311 4.81507L15.7439 4.48374C15.3761 4.35855 15.1057 4.40111 14.7969 4.47458L14.8779 4.81507L14.9589 5.15557C15.2191 5.09365 15.3352 5.08408 15.5183 5.14641L15.6311 4.81507ZM14.8779 4.81507L14.7969 4.47458C14.4717 4.55194 14.2259 4.67079 14.0317 4.87368C13.8502 5.06336 13.7395 5.30301 13.6331 5.54474L13.9534 5.68581L14.2737 5.82687C14.3849 5.57426 14.4529 5.44599 14.5375 5.35761C14.6094 5.28245 14.717 5.21311 14.9589 5.15557L14.8779 4.81507ZM13.9534 5.68581L13.6331 5.54474C13.3447 6.19954 13.2374 6.69735 13.1001 7.24956L13.4398 7.334L13.7795 7.41844C13.9205 6.85112 14.0142 6.41599 14.2737 5.82687L13.9534 5.68581ZM13.4398 7.334L13.1001 7.24956C13.0073 7.62294 12.9538 7.9532 12.7746 8.38037L13.0974 8.51573L13.4202 8.65108C13.6268 8.15848 13.699 7.74188 13.7795 7.41844L13.4398 7.334ZM13.0974 8.51573L12.7746 8.38037C12.6044 8.7864 12.5092 9.09882 12.2675 9.42819L12.5496 9.63527L12.8318 9.84234C13.1378 9.42534 13.2775 8.9914 13.4202 8.65108L13.0974 8.51573ZM12.5496 9.63527L12.2675 9.42819C12.2324 9.47589 12.1443 9.5478 12.0304 9.62029C11.9794 9.65276 11.9321 9.67987 11.8975 9.69882C11.8804 9.70823 11.8667 9.71544 11.8577 9.72012C11.8532 9.72246 11.8499 9.72414 11.848 9.72514C11.847 9.72564 11.8463 9.72597 11.846 9.72611C11.8459 9.72619 11.8458 9.72622 11.8459 9.7262C11.8459 9.72619 11.8459 9.72617 11.846 9.72614C11.846 9.72612 11.8461 9.7261 11.8461 9.72608C11.8461 9.72607 11.8462 9.72605 11.8462 9.72605C11.8462 9.72603 11.8462 9.72601 12.0018 10.0395C12.1574 10.3531 12.1574 10.3531 12.1574 10.353C12.1575 10.353 12.1575 10.353 12.1575 10.353C12.1576 10.3529 12.1577 10.3529 12.1578 10.3529C12.1579 10.3528 12.1581 10.3527 12.1583 10.3526C12.1587 10.3524 12.1592 10.3521 12.1598 10.3518C12.1611 10.3512 12.1626 10.3504 12.1646 10.3494C12.1685 10.3475 12.1738 10.3447 12.1804 10.3413C12.1936 10.3345 12.212 10.3247 12.2343 10.3125C12.2786 10.2882 12.3395 10.2533 12.4064 10.2108C12.5282 10.1332 12.7139 10.003 12.8318 9.84234L12.5496 9.63527ZM15.3003 8.03226L15.0334 7.80585C14.7474 8.14299 14.4048 8.50353 14.0913 8.72927L14.2958 9.01331L14.5003 9.29735C14.8851 9.02026 15.2722 8.60642 15.5672 8.25868L15.3003 8.03226ZM12.0018 10.0395C11.8947 9.70633 11.8947 9.70633 11.8947 9.70633C11.8947 9.70633 11.8947 9.70633 11.8947 9.70633C11.8947 9.70633 11.8947 9.70633 11.8947 9.70634C11.8946 9.70636 11.8945 9.70639 11.8944 9.70643C11.8941 9.70653 11.8936 9.70668 11.893 9.70689C11.8917 9.7073 11.8896 9.70795 11.887 9.7088C11.8816 9.71052 11.8734 9.71309 11.8629 9.71642C11.8417 9.72307 11.8107 9.73273 11.772 9.74458C11.6945 9.7683 11.5864 9.80065 11.4643 9.83512C11.2155 9.90536 10.9253 9.97956 10.7164 10.0114L10.7692 10.3574L10.822 10.7034C11.0769 10.6645 11.403 10.5798 11.6545 10.5088C11.7826 10.4726 11.8957 10.4388 11.9768 10.4139C12.0175 10.4015 12.0502 10.3913 12.0729 10.3842C12.0842 10.3806 12.0931 10.3778 12.0992 10.3759C12.1022 10.3749 12.1046 10.3741 12.1062 10.3736C12.107 10.3734 12.1077 10.3732 12.1081 10.373C12.1083 10.3729 12.1085 10.3729 12.1087 10.3728C12.1087 10.3728 12.1088 10.3728 12.1088 10.3728C12.1088 10.3728 12.1089 10.3728 12.1089 10.3728C12.1089 10.3728 12.1089 10.3727 12.0018 10.0395ZM10.7692 10.3574L10.7164 10.0114C10.1029 10.1049 9.77712 10.1489 9.20631 10.0727L9.15997 10.4196L9.11364 10.7665C9.78746 10.8565 10.1948 10.799 10.822 10.7034L10.7692 10.3574ZM9.15997 10.4196L9.20631 10.0727C8.71703 10.0073 8.46923 9.96586 8.08954 9.76735L7.92738 10.0775L7.76522 10.3877C8.25797 10.6453 8.60697 10.6988 9.11364 10.7665L9.15997 10.4196ZM7.92738 10.0775L8.08954 9.76735C7.73489 9.58193 7.56693 9.45752 7.34662 9.17712L7.07141 9.39336L6.7962 9.60959C7.0932 9.9876 7.34805 10.1696 7.76522 10.3877L7.92738 10.0775ZM7.07141 9.39336L7.34662 9.17712C7.08788 8.84781 6.99011 8.67361 6.97597 8.35176L6.62631 8.36712L6.27664 8.38249C6.30033 8.92144 6.50397 9.23766 6.7962 9.60959L7.07141 9.39336ZM6.62631 8.36712L6.97597 8.35176C6.96956 8.20596 6.96329 8.14312 6.96974 8.07709C6.97414 8.03205 6.98464 7.99314 7.02095 7.93825L6.72902 7.74516L6.4371 7.55208C6.22293 7.87588 6.26731 8.17004 6.27664 8.38249L6.62631 8.36712ZM6.72902 7.74516L7.02095 7.93825C7.06741 7.86799 7.10099 7.83205 7.13131 7.80819C7.16046 7.78526 7.20213 7.76129 7.27955 7.73683L7.17413 7.40309L7.0687 7.06934C6.93106 7.11282 6.8088 7.17125 6.69848 7.25805C6.58933 7.34393 6.50789 7.44506 6.4371 7.55208L6.72902 7.74516ZM7.17413 7.40309L7.27955 7.73683C7.40741 7.69644 7.48671 7.70344 7.68215 7.76702L7.79042 7.43418L7.8987 7.10135C7.64027 7.01729 7.39619 6.96589 7.0687 7.06934L7.17413 7.40309ZM7.79042 7.43418L7.68215 7.76702C7.76676 7.79454 7.80003 7.81549 7.91245 7.88608L8.09857 7.58967L8.28469 7.29326C8.17064 7.22165 8.07329 7.15815 7.8987 7.10135L7.79042 7.43418ZM8.09857 7.58967L7.91245 7.88608C7.98997 7.93476 8.08094 7.98446 8.12756 8.01187C8.18308 8.04452 8.22584 8.07296 8.26836 8.1099L8.49789 7.84566L8.72741 7.58143C8.63993 7.50544 8.55701 7.45234 8.48237 7.40845C8.39883 7.35933 8.35515 7.33751 8.28469 7.29326L8.09857 7.58967ZM8.49789 7.84566L8.26836 8.1099C8.36008 8.18957 8.37451 8.2027 8.46227 8.28605L8.70329 8.03226L8.94432 7.77847C8.84911 7.68805 8.82701 7.66795 8.72741 7.58143L8.49789 7.84566ZM12.0018 10.0395C12.1043 9.70488 12.1043 9.70489 12.1043 9.70489C12.1043 9.70489 12.1043 9.7049 12.1043 9.7049C12.1043 9.70489 12.1043 9.70489 12.1043 9.70487C12.1042 9.70484 12.104 9.70478 12.1037 9.7047C12.1031 9.70453 12.1022 9.70425 12.101 9.70386C12.0984 9.70307 12.0945 9.70185 12.0893 9.70021C12.0787 9.69691 12.0629 9.69191 12.0423 9.6853C12.0011 9.67207 11.9408 9.65238 11.8658 9.62696C11.7157 9.57606 11.5075 9.50244 11.2758 9.41178C10.8041 9.2272 10.2656 8.98366 9.91231 8.72927L9.70781 9.01331L9.5033 9.29735C9.93256 9.6064 10.5411 9.87598 11.0207 10.0637C11.2647 10.1591 11.4833 10.2364 11.641 10.2899C11.72 10.3167 11.7839 10.3375 11.8284 10.3518C11.8506 10.359 11.868 10.3644 11.88 10.3682C11.886 10.3701 11.8907 10.3715 11.8939 10.3725C11.8955 10.373 11.8968 10.3734 11.8977 10.3737C11.8982 10.3738 11.8985 10.374 11.8988 10.374C11.8989 10.3741 11.899 10.3741 11.8991 10.3741C11.8992 10.3742 11.8992 10.3742 11.8992 10.3742C11.8993 10.3742 11.8993 10.3742 12.0018 10.0395ZM9.70781 9.01331L9.91231 8.72927C9.57419 8.48582 9.20359 8.08674 8.90751 7.73127C8.76204 7.55661 8.63919 7.39816 8.55282 7.2835C8.50968 7.22625 8.47579 7.18011 8.45288 7.14856C8.44143 7.13279 8.43273 7.12068 8.427 7.11267C8.42414 7.10866 8.42202 7.10568 8.42067 7.10378C8.42 7.10283 8.41952 7.10215 8.41923 7.10175C8.41909 7.10154 8.419 7.10141 8.41895 7.10135C8.41893 7.10132 8.41892 7.1013 8.41892 7.10131C8.41893 7.10131 8.41894 7.10133 8.41894 7.10133C8.41895 7.10135 8.41897 7.10137 8.13282 7.30292C7.84667 7.50446 7.8467 7.50449 7.84672 7.50453C7.84674 7.50455 7.84677 7.50459 7.84679 7.50463C7.84685 7.5047 7.84691 7.5048 7.84699 7.50491C7.84715 7.50513 7.84735 7.50542 7.84761 7.50579C7.84812 7.50651 7.84884 7.50752 7.84974 7.5088C7.85156 7.51135 7.85415 7.51501 7.85751 7.5197C7.86421 7.52908 7.87395 7.54262 7.88648 7.55989C7.91155 7.59441 7.94788 7.64386 7.99371 7.70469C8.08526 7.82622 8.21528 7.99393 8.36964 8.17926C8.67323 8.54375 9.09012 8.99986 9.5033 9.29735L9.70781 9.01331ZM8.13282 7.30292C8.4271 7.11344 8.42713 7.11349 8.42716 7.11354C8.42717 7.11355 8.4272 7.1136 8.42722 7.11362C8.42725 7.11367 8.42727 7.11371 8.42729 7.11373C8.42732 7.11378 8.42732 7.11378 8.42728 7.11372C8.42721 7.11362 8.42702 7.11331 8.4267 7.11281C8.42606 7.1118 8.42493 7.11001 8.42333 7.10747C8.42015 7.10238 8.41514 7.0943 8.4086 7.08351C8.39551 7.0619 8.37636 7.02957 8.35344 6.9887C8.30736 6.90652 8.24731 6.79205 8.19079 6.6624C8.06847 6.38179 7.9991 6.11053 8.0317 5.93703L7.68772 5.87241L7.34374 5.80778C7.26882 6.20654 7.422 6.65053 7.54911 6.94212C7.61731 7.09856 7.68869 7.23442 7.74287 7.33105C7.77008 7.37958 7.79326 7.41877 7.80997 7.44633C7.81833 7.46012 7.82509 7.47105 7.82995 7.47881C7.83238 7.48269 7.83434 7.48579 7.83578 7.48806C7.8365 7.4892 7.8371 7.49013 7.83756 7.49086C7.83779 7.49122 7.83799 7.49153 7.83816 7.49179C7.83824 7.49191 7.83831 7.49203 7.83838 7.49213C7.83841 7.49218 7.83845 7.49225 7.83847 7.49227C7.83851 7.49234 7.83855 7.4924 8.13282 7.30292ZM7.68772 5.87241L8.0317 5.93703C8.07689 5.69651 8.11725 5.52505 8.18694 5.3945C8.24653 5.28285 8.32838 5.19981 8.48527 5.14641L8.37249 4.81507L8.25972 4.48374C7.92271 4.59845 7.70653 4.80796 7.5694 5.06489C7.44235 5.30292 7.38727 5.57608 7.34374 5.80778L7.68772 5.87241ZM8.37249 4.81507L8.48527 5.14641C8.66839 5.08408 8.78446 5.09365 9.04475 5.15557L9.12575 4.81507L9.20674 4.47458C8.8979 4.40111 8.62751 4.35855 8.25972 4.48374L8.37249 4.81507ZM9.12575 4.81507L9.04475 5.15557C9.28661 5.21311 9.39419 5.28245 9.46611 5.35761C9.55067 5.44599 9.61866 5.57426 9.72991 5.82687L10.0502 5.68581L10.3705 5.54474C10.2641 5.30301 10.1534 5.06336 9.97189 4.87368C9.77776 4.67079 9.53195 4.55194 9.20674 4.47458L9.12575 4.81507ZM10.0502 5.68581L9.72991 5.82687C9.98936 6.41599 10.0831 6.85112 10.2241 7.41844L10.5638 7.334L10.9035 7.24956C10.7662 6.69735 10.6589 6.19954 10.3705 5.54474L10.0502 5.68581ZM10.5638 7.334L10.2241 7.41844C10.3046 7.74188 10.3768 8.15848 10.5834 8.65108L10.9062 8.51573L11.229 8.38037C11.0498 7.9532 10.9963 7.62294 10.9035 7.24956L10.5638 7.334ZM10.9062 8.51573L10.5834 8.65108C10.7261 8.9914 10.8658 9.42534 11.1718 9.84234L11.454 9.63527L11.7362 9.42819C11.4944 9.09882 11.3992 8.7864 11.229 8.38037L10.9062 8.51573ZM11.454 9.63527L11.1718 9.84234C11.2897 10.003 11.4754 10.1332 11.5973 10.2108C11.6641 10.2533 11.7251 10.2882 11.7693 10.3125C11.7916 10.3247 11.81 10.3345 11.8232 10.3413C11.8298 10.3447 11.8351 10.3475 11.839 10.3494C11.841 10.3504 11.8425 10.3512 11.8438 10.3518C11.8444 10.3521 11.8449 10.3524 11.8453 10.3526C11.8455 10.3527 11.8457 10.3528 11.8458 10.3529C11.8459 10.3529 11.846 10.3529 11.8461 10.353C11.8461 10.353 11.8461 10.353 11.8462 10.353C11.8462 10.3531 11.8462 10.3531 12.0018 10.0395C12.1574 9.72601 12.1574 9.72603 12.1574 9.72605C12.1575 9.72605 12.1575 9.72607 12.1575 9.72608C12.1576 9.7261 12.1576 9.72612 12.1576 9.72614C12.1577 9.72617 12.1577 9.72619 12.1577 9.7262C12.1578 9.72622 12.1577 9.72619 12.1576 9.72611C12.1573 9.72597 12.1566 9.72564 12.1556 9.72514C12.1537 9.72414 12.1504 9.72246 12.1459 9.72012C12.1369 9.71544 12.1232 9.70823 12.1061 9.69882C12.0715 9.67987 12.0242 9.65276 11.9732 9.62029C11.8593 9.5478 11.7712 9.47589 11.7362 9.42819L11.454 9.63527ZM8.70329 8.03226L8.43639 8.25868C8.73138 8.60642 9.11846 9.02026 9.5033 9.29735L9.70781 9.01331L9.91231 8.72927C9.59877 8.50353 9.2562 8.14299 8.9702 7.80585L8.70329 8.03226ZM10.0502 5.68581L10.3999 5.70093C10.4207 5.22071 10.6704 4.77075 11.1397 4.55275L10.9922 4.23533L10.8447 3.91792C10.1034 4.26233 9.73085 4.97006 9.70055 5.67069L10.0502 5.68581ZM10.9922 4.23533L11.1397 4.55275C11.7215 4.28242 12.2821 4.28242 12.8639 4.55275L13.0114 4.23533L13.1589 3.91792C12.39 3.56069 11.6136 3.56069 10.8447 3.91792L10.9922 4.23533ZM13.0114 4.23533L12.8639 4.55275C13.3332 4.77075 13.5829 5.22069 13.6037 5.70095L13.9534 5.68581L14.3031 5.67066C14.2727 4.97008 13.9002 4.26233 13.1589 3.91792L13.0114 4.23533ZM12.0018 10.0775H11.6518V11H12.0018H12.3518V10.0775H12.0018Z" fill="#3A643C"/>
<path d="M13.2344 10.3574L13.2872 10.0114L13.2344 10.3574ZM14.8436 10.4196L14.7973 10.0727L14.8436 10.4196ZM16.0762 10.0775L16.2384 10.3877L16.0762 10.0775ZM16.9322 9.39336L17.2074 9.60959L16.9322 9.39336ZM17.3773 8.36712L17.0276 8.35176L17.3773 8.36712ZM17.2746 7.74516L17.5665 7.55208L17.2746 7.74516ZM16.8295 7.40309L16.7241 7.73683L16.8295 7.40309ZM16.2132 7.43418L16.3215 7.76702L16.2132 7.43418ZM15.905 7.58967L16.0912 7.88608L15.905 7.58967ZM15.5057 7.84566L15.7352 8.1099L15.5057 7.84566ZM15.3003 8.03226L15.0593 7.77847C15.0502 7.78713 15.0415 7.79626 15.0334 7.80585L15.3003 8.03226ZM14.2958 9.01331L14.0913 8.72927L14.2958 9.01331ZM15.8708 7.30292L16.1569 7.50446C16.1597 7.50049 16.1624 7.49647 16.1651 7.4924L15.8708 7.30292ZM16.3159 5.87241L15.9719 5.93703L16.3159 5.87241ZM15.6311 4.81507L15.5183 5.14641L15.6311 4.81507ZM14.8779 4.81507L14.7969 4.47458L14.8779 4.81507ZM13.4398 7.334L13.1001 7.24956V7.24956L13.4398 7.334ZM13.0974 8.51573L12.7746 8.38037L13.0974 8.51573ZM12.5496 9.63527L12.8318 9.84234V9.84234L12.5496 9.63527ZM10.7692 10.3574L10.7164 10.0114H10.7164L10.7692 10.3574ZM9.15997 10.4196L9.20631 10.0727H9.20631L9.15997 10.4196ZM7.92738 10.0775L7.76522 10.3877L7.92738 10.0775ZM7.07141 9.39336L6.7962 9.60959H6.7962L7.07141 9.39336ZM6.62631 8.36712L6.97597 8.35176L6.62631 8.36712ZM6.72902 7.74516L6.4371 7.55208H6.4371L6.72902 7.74516ZM7.17413 7.40309L7.27955 7.73683L7.17413 7.40309ZM7.79042 7.43418L7.68215 7.76702L7.79042 7.43418ZM8.09857 7.58967L7.91245 7.88608L8.09857 7.58967ZM8.49789 7.84566L8.26836 8.1099L8.49789 7.84566ZM8.7033 8.03226L8.9702 7.80585C8.96207 7.79626 8.95343 7.78713 8.94432 7.77847L8.7033 8.03226ZM9.70781 9.01331L9.91231 8.72927L9.70781 9.01331ZM8.13282 7.30292L7.83855 7.4924C7.84117 7.49647 7.84388 7.50049 7.84667 7.50446L8.13282 7.30292ZM7.68772 5.87241L8.0317 5.93703L7.68772 5.87241ZM8.37249 4.81507L8.48527 5.14641L8.37249 4.81507ZM9.12575 4.81507L9.20674 4.47458L9.12575 4.81507ZM10.5638 7.334L10.9035 7.24956V7.24956L10.5638 7.334ZM10.9062 8.51573L11.229 8.38037L10.9062 8.51573ZM11.454 9.63527L11.1718 9.84234L11.1718 9.84234L11.454 9.63527ZM10.9922 4.23533L11.1397 4.55275L10.9922 4.23533ZM13.0114 4.23533L13.1589 3.91792V3.91792L13.0114 4.23533ZM12.3518 10.0775C12.3518 9.88422 12.1951 9.72752 12.0018 9.72752C11.8085 9.72752 11.6518 9.88422 11.6518 10.0775H12.3518ZM11.6518 11C11.6518 11.1933 11.8085 11.35 12.0018 11.35C12.1951 11.35 12.3518 11.1933 12.3518 11H11.6518ZM12.0018 10.0395C11.8947 10.3727 11.8947 10.3728 11.8947 10.3728C11.8947 10.3728 11.8948 10.3728 11.8948 10.3728C11.8948 10.3728 11.8949 10.3728 11.895 10.3728C11.8951 10.3729 11.8953 10.3729 11.8955 10.373C11.8959 10.3732 11.8966 10.3734 11.8974 10.3736C11.899 10.3741 11.9014 10.3749 11.9044 10.3759C11.9105 10.3778 11.9194 10.3806 11.9307 10.3842C11.9534 10.3913 11.9862 10.4015 12.0268 10.4139C12.1079 10.4388 12.221 10.4726 12.3491 10.5088C12.6006 10.5798 12.9267 10.6645 13.1817 10.7034L13.2344 10.3574L13.2872 10.0114C13.0783 9.97956 12.7881 9.90535 12.5393 9.83512C12.4172 9.80065 12.3091 9.7683 12.2316 9.74458C12.1929 9.73273 12.1619 9.72307 12.1407 9.71642C12.1302 9.71309 12.122 9.71052 12.1167 9.7088C12.114 9.70795 12.1119 9.7073 12.1106 9.70689C12.11 9.70668 12.1095 9.70653 12.1092 9.70643C12.1091 9.70639 12.109 9.70636 12.1089 9.70634C12.1089 9.70633 12.1089 9.70633 12.1089 9.70633C12.1089 9.70632 12.1089 9.70633 12.1089 9.70633C12.1089 9.70633 12.1089 9.70633 12.0018 10.0395ZM13.2344 10.3574L13.1817 10.7034C13.8088 10.799 14.2161 10.8565 14.89 10.7665L14.8436 10.4196L14.7973 10.0727C14.2265 10.1489 13.9007 10.1049 13.2872 10.0114L13.2344 10.3574ZM14.8436 10.4196L14.89 10.7665C15.3966 10.6988 15.7456 10.6453 16.2384 10.3877L16.0762 10.0775L15.9141 9.76735C15.5344 9.96586 15.2866 10.0073 14.7973 10.0727L14.8436 10.4196ZM16.0762 10.0775L16.2384 10.3877C16.6556 10.1696 16.9104 9.9876 17.2074 9.60959L16.9322 9.39336L16.657 9.17712C16.4367 9.45752 16.2687 9.58193 15.9141 9.76735L16.0762 10.0775ZM16.9322 9.39336L17.2074 9.60959C17.4996 9.23766 17.7033 8.92144 17.727 8.38249L17.3773 8.36712L17.0276 8.35176C17.0135 8.67361 16.9157 8.84781 16.657 9.17712L16.9322 9.39336ZM17.3773 8.36712L17.727 8.38249C17.7363 8.17004 17.7807 7.87588 17.5665 7.55208L17.2746 7.74516L16.9827 7.93825C17.019 7.99314 17.0295 8.03205 17.0339 8.07709C17.0403 8.14312 17.034 8.20596 17.0276 8.35176L17.3773 8.36712ZM17.2746 7.74516L17.5665 7.55208C17.4957 7.44505 17.4143 7.34393 17.3051 7.25805C17.1948 7.17125 17.0725 7.11282 16.9349 7.06934L16.8295 7.40309L16.7241 7.73683C16.8015 7.76129 16.8431 7.78526 16.8723 7.80819C16.9026 7.83205 16.9362 7.86799 16.9827 7.93825L17.2746 7.74516ZM16.8295 7.40309L16.9349 7.06934C16.6074 6.96589 16.3633 7.01728 16.1049 7.10135L16.2132 7.43418L16.3215 7.76702C16.5169 7.70344 16.5962 7.69644 16.7241 7.73683L16.8295 7.40309ZM16.2132 7.43418L16.1049 7.10135C15.9303 7.15815 15.833 7.22165 15.7189 7.29326L15.905 7.58967L16.0912 7.88608C16.2036 7.81549 16.2368 7.79454 16.3215 7.76702L16.2132 7.43418ZM15.905 7.58967L15.7189 7.29326C15.6485 7.33751 15.6048 7.35933 15.5212 7.40845C15.4466 7.45234 15.3637 7.50544 15.2762 7.58143L15.5057 7.84566L15.7352 8.1099C15.7778 8.07296 15.8205 8.04452 15.876 8.01187C15.9227 7.98446 16.0136 7.93476 16.0912 7.88608L15.905 7.58967ZM15.5057 7.84566L15.2762 7.58143C15.1766 7.66795 15.1545 7.68805 15.0593 7.77847L15.3003 8.03226L15.5413 8.28605C15.6291 8.2027 15.6435 8.18957 15.7352 8.1099L15.5057 7.84566ZM12.0018 10.0395C12.1043 10.3742 12.1043 10.3742 12.1044 10.3742C12.1044 10.3742 12.1044 10.3742 12.1045 10.3741C12.1046 10.3741 12.1047 10.3741 12.1048 10.374C12.1051 10.374 12.1054 10.3738 12.1059 10.3737C12.1068 10.3734 12.1081 10.373 12.1097 10.3725C12.1129 10.3715 12.1176 10.3701 12.1236 10.3682C12.1356 10.3644 12.153 10.359 12.1752 10.3518C12.2197 10.3375 12.2836 10.3167 12.3626 10.2899C12.5203 10.2364 12.7389 10.1591 12.9829 10.0637C13.4625 9.87598 14.0711 9.6064 14.5003 9.29734L14.2958 9.01331L14.0913 8.72927C13.738 8.98366 13.1995 9.2272 12.7278 9.41178C12.4961 9.50244 12.2879 9.57606 12.1378 9.62696C12.0628 9.65238 12.0025 9.67206 11.9613 9.6853C11.9407 9.69191 11.9249 9.69691 11.9144 9.70021C11.9091 9.70185 11.9052 9.70307 11.9026 9.70385C11.9014 9.70425 11.9005 9.70453 11.8999 9.7047C11.8996 9.70478 11.8994 9.70484 11.8993 9.70487C11.8993 9.70489 11.8993 9.70489 11.8993 9.7049C11.8993 9.7049 11.8993 9.70489 11.8993 9.70489C11.8993 9.70489 11.8993 9.70488 12.0018 10.0395ZM14.2958 9.01331L14.5003 9.29734C14.9135 8.99986 15.3304 8.54375 15.634 8.17926C15.7883 7.99393 15.9184 7.82622 16.0099 7.70469C16.0557 7.64386 16.0921 7.59441 16.1171 7.55989C16.1297 7.54262 16.1394 7.52908 16.1461 7.5197C16.1495 7.51501 16.152 7.51135 16.1539 7.50879C16.1548 7.50752 16.1555 7.50651 16.156 7.50578C16.1563 7.50542 16.1565 7.50513 16.1566 7.50491C16.1567 7.5048 16.1568 7.5047 16.1568 7.50463C16.1568 7.50459 16.1569 7.50455 16.1569 7.50453C16.1569 7.50449 16.1569 7.50446 15.8708 7.30292C15.5846 7.10137 15.5847 7.10135 15.5847 7.10133C15.5847 7.10133 15.5847 7.10131 15.5847 7.10131C15.5847 7.1013 15.5847 7.10132 15.5847 7.10135C15.5846 7.10141 15.5845 7.10154 15.5844 7.10174C15.5841 7.10215 15.5836 7.10283 15.5829 7.10378C15.5816 7.10568 15.5795 7.10866 15.5766 7.11267C15.5709 7.12068 15.5622 7.13279 15.5507 7.14856C15.5278 7.18011 15.4939 7.22625 15.4508 7.2835C15.3644 7.39816 15.2416 7.55661 15.0961 7.73127C14.8 8.08674 14.4294 8.48582 14.0913 8.72927L14.2958 9.01331ZM15.8708 7.30292C16.1651 7.4924 16.1651 7.49234 16.1651 7.49227C16.1652 7.49225 16.1652 7.49218 16.1652 7.49213C16.1653 7.49203 16.1654 7.49191 16.1655 7.49179C16.1656 7.49153 16.1658 7.49122 16.166 7.49086C16.1665 7.49013 16.1671 7.4892 16.1678 7.48806C16.1693 7.48579 16.1712 7.48269 16.1737 7.47881C16.1785 7.47104 16.1853 7.46012 16.1936 7.44633C16.2103 7.41877 16.2335 7.37958 16.2607 7.33105C16.3149 7.23442 16.3863 7.09856 16.4545 6.94212C16.5816 6.65053 16.7348 6.20654 16.6599 5.80778L16.3159 5.87241L15.9719 5.93703C16.0045 6.11053 15.9351 6.38179 15.8128 6.6624C15.7563 6.79205 15.6962 6.90652 15.6502 6.9887C15.6272 7.02957 15.6081 7.0619 15.595 7.08351C15.5885 7.0943 15.5835 7.10238 15.5803 7.10747C15.5787 7.11001 15.5775 7.1118 15.5769 7.11281C15.5766 7.11331 15.5764 7.11362 15.5763 7.11372C15.5763 7.11378 15.5763 7.11378 15.5763 7.11373C15.5763 7.11371 15.5764 7.11367 15.5764 7.11362C15.5764 7.1136 15.5764 7.11355 15.5764 7.11354C15.5765 7.11349 15.5765 7.11344 15.8708 7.30292ZM16.3159 5.87241L16.6599 5.80778C16.6163 5.57608 16.5613 5.30292 16.4342 5.06489C16.2971 4.80796 16.0809 4.59845 15.7439 4.48374L15.6311 4.81507L15.5183 5.14641C15.6752 5.19981 15.7571 5.28285 15.8167 5.3945C15.8864 5.52505 15.9267 5.69651 15.9719 5.93703L16.3159 5.87241ZM15.6311 4.81507L15.7439 4.48374C15.3761 4.35855 15.1057 4.40111 14.7969 4.47458L14.8779 4.81507L14.9589 5.15557C15.2191 5.09365 15.3352 5.08408 15.5183 5.14641L15.6311 4.81507ZM14.8779 4.81507L14.7969 4.47458C14.4717 4.55194 14.2259 4.67079 14.0317 4.87368C13.8502 5.06336 13.7395 5.30301 13.6331 5.54474L13.9534 5.68581L14.2737 5.82687C14.3849 5.57426 14.4529 5.44599 14.5375 5.35761C14.6094 5.28245 14.717 5.21311 14.9589 5.15557L14.8779 4.81507ZM13.9534 5.68581L13.6331 5.54474C13.3447 6.19954 13.2374 6.69735 13.1001 7.24956L13.4398 7.334L13.7795 7.41844C13.9205 6.85112 14.0142 6.41599 14.2737 5.82687L13.9534 5.68581ZM13.4398 7.334L13.1001 7.24956C13.0073 7.62294 12.9538 7.9532 12.7746 8.38037L13.0974 8.51573L13.4202 8.65108C13.6268 8.15848 13.699 7.74188 13.7795 7.41844L13.4398 7.334ZM13.0974 8.51573L12.7746 8.38037C12.6044 8.7864 12.5092 9.09882 12.2675 9.42819L12.5496 9.63527L12.8318 9.84234C13.1378 9.42534 13.2775 8.9914 13.4202 8.65108L13.0974 8.51573ZM12.5496 9.63527L12.2675 9.42819C12.2324 9.47589 12.1443 9.5478 12.0304 9.62029C11.9794 9.65276 11.9321 9.67987 11.8975 9.69882C11.8804 9.70823 11.8667 9.71544 11.8577 9.72012C11.8532 9.72245 11.8499 9.72414 11.848 9.72514C11.847 9.72564 11.8463 9.72597 11.846 9.72611C11.8459 9.72619 11.8458 9.72622 11.8459 9.7262C11.8459 9.72619 11.8459 9.72617 11.846 9.72614C11.846 9.72612 11.8461 9.7261 11.8461 9.72608C11.8461 9.72607 11.8462 9.72605 11.8462 9.72605C11.8462 9.72603 11.8462 9.72601 12.0018 10.0395C12.1574 10.3531 12.1574 10.353 12.1574 10.353C12.1575 10.353 12.1575 10.353 12.1575 10.353C12.1576 10.3529 12.1577 10.3529 12.1578 10.3529C12.1579 10.3528 12.1581 10.3527 12.1583 10.3526C12.1587 10.3524 12.1592 10.3521 12.1598 10.3518C12.1611 10.3512 12.1626 10.3504 12.1646 10.3494C12.1685 10.3475 12.1738 10.3447 12.1804 10.3413C12.1936 10.3345 12.212 10.3247 12.2343 10.3125C12.2786 10.2882 12.3395 10.2533 12.4064 10.2108C12.5282 10.1332 12.7139 10.003 12.8318 9.84234L12.5496 9.63527ZM15.3003 8.03226L15.0334 7.80585C14.7474 8.14299 14.4048 8.50353 14.0913 8.72927L14.2958 9.01331L14.5003 9.29734C14.8851 9.02026 15.2722 8.60642 15.5672 8.25867L15.3003 8.03226ZM12.0018 10.0395C11.8947 9.70633 11.8947 9.70633 11.8947 9.70633C11.8947 9.70633 11.8947 9.70632 11.8947 9.70633C11.8947 9.70633 11.8947 9.70633 11.8947 9.70634C11.8946 9.70636 11.8945 9.70639 11.8944 9.70643C11.8941 9.70653 11.8936 9.70668 11.893 9.70689C11.8917 9.7073 11.8896 9.70795 11.887 9.7088C11.8816 9.71052 11.8734 9.71309 11.8629 9.71642C11.8417 9.72307 11.8107 9.73273 11.772 9.74458C11.6945 9.7683 11.5864 9.80065 11.4643 9.83512C11.2155 9.90535 10.9253 9.97956 10.7164 10.0114L10.7692 10.3574L10.822 10.7034C11.0769 10.6645 11.403 10.5798 11.6545 10.5088C11.7826 10.4726 11.8957 10.4388 11.9768 10.4139C12.0175 10.4015 12.0502 10.3913 12.0729 10.3842C12.0842 10.3806 12.0931 10.3778 12.0992 10.3759C12.1022 10.3749 12.1046 10.3741 12.1062 10.3736C12.107 10.3734 12.1077 10.3732 12.1081 10.373C12.1083 10.3729 12.1085 10.3729 12.1087 10.3728C12.1087 10.3728 12.1088 10.3728 12.1088 10.3728C12.1088 10.3728 12.1089 10.3728 12.1089 10.3728C12.1089 10.3728 12.1089 10.3727 12.0018 10.0395ZM10.7692 10.3574L10.7164 10.0114C10.1029 10.1049 9.77712 10.1489 9.20631 10.0727L9.15997 10.4196L9.11364 10.7665C9.78746 10.8565 10.1948 10.799 10.822 10.7034L10.7692 10.3574ZM9.15997 10.4196L9.20631 10.0727C8.71703 10.0073 8.46923 9.96586 8.08954 9.76735L7.92738 10.0775L7.76522 10.3877C8.25797 10.6453 8.60697 10.6988 9.11364 10.7665L9.15997 10.4196ZM7.92738 10.0775L8.08954 9.76735C7.73489 9.58193 7.56693 9.45752 7.34662 9.17712L7.07141 9.39336L6.7962 9.60959C7.0932 9.9876 7.34805 10.1696 7.76522 10.3877L7.92738 10.0775ZM7.07141 9.39336L7.34662 9.17712C7.08788 8.84781 6.99011 8.67361 6.97597 8.35176L6.62631 8.36712L6.27664 8.38249C6.30033 8.92144 6.50397 9.23766 6.7962 9.60959L7.07141 9.39336ZM6.62631 8.36712L6.97597 8.35176C6.96956 8.20596 6.96329 8.14312 6.96974 8.07709C6.97414 8.03205 6.98464 7.99314 7.02095 7.93825L6.72902 7.74516L6.4371 7.55208C6.22293 7.87588 6.26731 8.17004 6.27664 8.38249L6.62631 8.36712ZM6.72902 7.74516L7.02095 7.93825C7.06741 7.86799 7.10099 7.83205 7.13131 7.80819C7.16046 7.78526 7.20213 7.76129 7.27955 7.73683L7.17413 7.40309L7.0687 7.06934C6.93106 7.11282 6.8088 7.17125 6.69848 7.25805C6.58933 7.34393 6.50789 7.44505 6.4371 7.55208L6.72902 7.74516ZM7.17413 7.40309L7.27955 7.73683C7.40741 7.69644 7.48671 7.70344 7.68215 7.76702L7.79042 7.43418L7.8987 7.10135C7.64027 7.01728 7.39619 6.96589 7.0687 7.06934L7.17413 7.40309ZM7.79042 7.43418L7.68215 7.76702C7.76676 7.79454 7.80003 7.81549 7.91245 7.88608L8.09857 7.58967L8.28469 7.29326C8.17064 7.22165 8.07329 7.15815 7.8987 7.10135L7.79042 7.43418ZM8.09857 7.58967L7.91245 7.88608C7.98997 7.93476 8.08094 7.98446 8.12756 8.01187C8.18308 8.04452 8.22584 8.07296 8.26836 8.1099L8.49789 7.84566L8.72741 7.58143C8.63993 7.50544 8.55701 7.45234 8.48237 7.40845C8.39883 7.35933 8.35515 7.33751 8.28469 7.29326L8.09857 7.58967ZM8.49789 7.84566L8.26836 8.1099C8.36008 8.18957 8.37451 8.2027 8.46227 8.28605L8.7033 8.03226L8.94432 7.77847C8.84911 7.68805 8.82701 7.66795 8.72741 7.58143L8.49789 7.84566ZM12.0018 10.0395C12.1043 9.70488 12.1043 9.70489 12.1043 9.70489C12.1043 9.70489 12.1043 9.7049 12.1043 9.7049C12.1043 9.70489 12.1043 9.70489 12.1043 9.70487C12.1042 9.70484 12.104 9.70478 12.1037 9.7047C12.1031 9.70453 12.1022 9.70425 12.101 9.70385C12.0984 9.70307 12.0945 9.70185 12.0893 9.70021C12.0787 9.69691 12.0629 9.69191 12.0423 9.6853C12.0011 9.67206 11.9408 9.65238 11.8658 9.62696C11.7157 9.57606 11.5075 9.50244 11.2758 9.41178C10.8041 9.2272 10.2656 8.98366 9.91231 8.72927L9.70781 9.01331L9.5033 9.29734C9.93256 9.6064 10.5411 9.87598 11.0207 10.0637C11.2647 10.1591 11.4833 10.2364 11.641 10.2899C11.72 10.3167 11.7839 10.3375 11.8284 10.3518C11.8506 10.359 11.868 10.3644 11.88 10.3682C11.886 10.3701 11.8907 10.3715 11.8939 10.3725C11.8955 10.373 11.8968 10.3734 11.8977 10.3737C11.8982 10.3738 11.8985 10.374 11.8988 10.374C11.8989 10.3741 11.899 10.3741 11.8991 10.3741C11.8992 10.3742 11.8992 10.3742 11.8992 10.3742C11.8993 10.3742 11.8993 10.3742 12.0018 10.0395ZM9.70781 9.01331L9.91231 8.72927C9.57419 8.48582 9.20359 8.08674 8.90751 7.73127C8.76204 7.55661 8.63919 7.39816 8.55282 7.2835C8.50968 7.22625 8.47579 7.18011 8.45288 7.14856C8.44143 7.13279 8.43273 7.12068 8.427 7.11267C8.42414 7.10866 8.42202 7.10568 8.42067 7.10378C8.42 7.10283 8.41952 7.10215 8.41923 7.10174C8.41909 7.10154 8.419 7.10141 8.41895 7.10135C8.41893 7.10132 8.41892 7.1013 8.41892 7.10131C8.41893 7.10131 8.41894 7.10133 8.41894 7.10133C8.41895 7.10135 8.41897 7.10137 8.13282 7.30292C7.84667 7.50446 7.8467 7.50449 7.84672 7.50453C7.84674 7.50455 7.84677 7.50459 7.84679 7.50463C7.84685 7.5047 7.84691 7.5048 7.84699 7.50491C7.84715 7.50513 7.84735 7.50542 7.84761 7.50578C7.84812 7.50651 7.84884 7.50752 7.84974 7.50879C7.85156 7.51135 7.85415 7.515 7.85751 7.5197C7.86421 7.52908 7.87395 7.54262 7.88648 7.55989C7.91155 7.59441 7.94788 7.64386 7.99371 7.70469C8.08526 7.82622 8.21528 7.99393 8.36964 8.17926C8.67323 8.54375 9.09013 8.99986 9.5033 9.29734L9.70781 9.01331ZM8.13282 7.30292C8.4271 7.11343 8.42713 7.11349 8.42716 7.11354C8.42717 7.11355 8.4272 7.1136 8.42722 7.11362C8.42725 7.11367 8.42727 7.11371 8.42729 7.11373C8.42732 7.11378 8.42732 7.11378 8.42728 7.11372C8.42721 7.11362 8.42702 7.11331 8.4267 7.11281C8.42606 7.1118 8.42493 7.11001 8.42333 7.10747C8.42015 7.10238 8.41514 7.0943 8.4086 7.08351C8.39551 7.0619 8.37636 7.02957 8.35344 6.9887C8.30736 6.90652 8.24731 6.79205 8.19079 6.6624C8.06847 6.38179 7.9991 6.11053 8.0317 5.93703L7.68772 5.87241L7.34374 5.80778C7.26882 6.20654 7.422 6.65053 7.54911 6.94212C7.61731 7.09856 7.68869 7.23442 7.74287 7.33105C7.77008 7.37958 7.79326 7.41877 7.80997 7.44633C7.81833 7.46012 7.82509 7.47104 7.82995 7.47881C7.83238 7.48269 7.83434 7.48579 7.83578 7.48806C7.8365 7.4892 7.8371 7.49013 7.83756 7.49086C7.83779 7.49122 7.83799 7.49153 7.83816 7.49179C7.83824 7.49191 7.83831 7.49203 7.83838 7.49213C7.83841 7.49218 7.83845 7.49225 7.83847 7.49227C7.83851 7.49234 7.83855 7.4924 8.13282 7.30292ZM7.68772 5.87241L8.0317 5.93703C8.07689 5.69651 8.11725 5.52505 8.18694 5.3945C8.24653 5.28285 8.32838 5.19981 8.48527 5.14641L8.37249 4.81507L8.25972 4.48374C7.92271 4.59845 7.70653 4.80796 7.5694 5.06489C7.44235 5.30292 7.38727 5.57608 7.34374 5.80778L7.68772 5.87241ZM8.37249 4.81507L8.48527 5.14641C8.66839 5.08408 8.78446 5.09365 9.04475 5.15557L9.12575 4.81507L9.20674 4.47458C8.8979 4.40111 8.62751 4.35855 8.25972 4.48374L8.37249 4.81507ZM9.12575 4.81507L9.04475 5.15557C9.28661 5.21311 9.39419 5.28245 9.46611 5.35761C9.55067 5.44599 9.61866 5.57426 9.72991 5.82687L10.0502 5.68581L10.3705 5.54474C10.2641 5.30301 10.1534 5.06336 9.97189 4.87368C9.77776 4.67079 9.53195 4.55194 9.20674 4.47458L9.12575 4.81507ZM10.0502 5.68581L9.72991 5.82687C9.98936 6.41599 10.0831 6.85112 10.2241 7.41844L10.5638 7.334L10.9035 7.24956C10.7662 6.69735 10.6589 6.19954 10.3705 5.54474L10.0502 5.68581ZM10.5638 7.334L10.2241 7.41844C10.3046 7.74188 10.3768 8.15848 10.5834 8.65108L10.9062 8.51573L11.229 8.38037C11.0498 7.9532 10.9963 7.62294 10.9035 7.24956L10.5638 7.334ZM10.9062 8.51573L10.5834 8.65108C10.7261 8.9914 10.8658 9.42534 11.1718 9.84234L11.454 9.63527L11.7362 9.42819C11.4944 9.09882 11.3992 8.7864 11.229 8.38037L10.9062 8.51573ZM11.454 9.63527L11.1718 9.84234C11.2897 10.003 11.4754 10.1332 11.5973 10.2108C11.6641 10.2533 11.7251 10.2882 11.7693 10.3125C11.7916 10.3247 11.81 10.3345 11.8232 10.3413C11.8298 10.3447 11.8351 10.3475 11.839 10.3494C11.841 10.3504 11.8425 10.3512 11.8438 10.3518C11.8444 10.3521 11.8449 10.3524 11.8453 10.3526C11.8455 10.3527 11.8457 10.3528 11.8458 10.3529C11.8459 10.3529 11.846 10.3529 11.8461 10.353C11.8461 10.353 11.8461 10.353 11.8462 10.353C11.8462 10.353 11.8462 10.3531 12.0018 10.0395C12.1574 9.72601 12.1574 9.72603 12.1574 9.72605C12.1575 9.72605 12.1575 9.72607 12.1575 9.72608C12.1576 9.7261 12.1576 9.72612 12.1576 9.72614C12.1577 9.72617 12.1577 9.72619 12.1577 9.7262C12.1578 9.72622 12.1577 9.72619 12.1576 9.72611C12.1573 9.72597 12.1566 9.72564 12.1556 9.72514C12.1537 9.72414 12.1504 9.72245 12.1459 9.72012C12.1369 9.71544 12.1232 9.70823 12.1061 9.69882C12.0715 9.67987 12.0242 9.65276 11.9732 9.62029C11.8593 9.5478 11.7712 9.47589 11.7362 9.42819L11.454 9.63527ZM8.7033 8.03226L8.43639 8.25867C8.73138 8.60642 9.11846 9.02026 9.5033 9.29734L9.70781 9.01331L9.91231 8.72927C9.59877 8.50353 9.2562 8.14299 8.9702 7.80585L8.7033 8.03226ZM10.0502 5.68581L10.3999 5.70093C10.4207 5.2207 10.6704 4.77075 11.1397 4.55275L10.9922 4.23533L10.8447 3.91792C10.1034 4.26233 9.73085 4.97006 9.70055 5.67069L10.0502 5.68581ZM10.9922 4.23533L11.1397 4.55275C11.7215 4.28242 12.2821 4.28242 12.8639 4.55275L13.0114 4.23533L13.1589 3.91792C12.39 3.56069 11.6136 3.56069 10.8447 3.91792L10.9922 4.23533ZM13.0114 4.23533L12.8639 4.55275C13.3332 4.77075 13.5829 5.22069 13.6037 5.70095L13.9534 5.68581L14.3031 5.67066C14.2727 4.97008 13.9002 4.26233 13.1589 3.91792L13.0114 4.23533ZM12.0018 10.0775H11.6518V11H12.0018H12.3518V10.0775H12.0018Z" fill="#3A643C"/>
</svg>
